<?xml version="1.0" encoding="utf-8"?>
<!-- Generator: Adobe Illustrator 16.0.0, SVG Export Plug-In . SVG Version: 6.00 Build 0)  -->
<!DOCTYPE svg PUBLIC "-//W3C//DTD SVG 1.1//EN" "http://www.w3.org/Graphics/SVG/1.1/DTD/svg11.dtd">
<svg version="1.1" id="Layer_1" xmlns="http://www.w3.org/2000/svg" xmlns:xlink="http://www.w3.org/1999/xlink" x="0px" y="0px"
	 width="3000px" height="2000px" viewBox="0 0 3000 2000" enable-background="new 0 0 3000 2000" xml:space="preserve">
<g>
	<path id="XMLID_69_" fill="#12B293" d="M674.346,903.581H280.234c-12.318,0-22.308-9.254-22.308-20.672V739.874
		c0-56.071,49.057-101.529,109.569-101.529h306.851V903.581z"/>
	<rect x="260.109" y="757.875" fill="#F0F2F5" width="412.056" height="47.546"/>
	<path fill="#1C2238" d="M771.951,903.581H604.36V718.34c0-44.179,38.651-79.995,86.33-79.995h7.805
		c47.68,0,86.331,35.816,86.331,79.995v173.312C784.825,898.237,779.061,903.581,771.951,903.581z"/>
</g>
<path fill="#1D2238" d="M2049.249,554.914c0,0-46.552,0-53.199,47.768c-5.544,39.847,22.004,60.462,22.004,60.462l44.282-82.355
	L2049.249,554.914z"/>
<path fill="#EB9481" d="M2204.94,746.233L2163.225,616.5l-0.594,0.158c-7.54-35.274-43.266-59.734-82.424-55.348l0,0
	c-35.077,3.93-58.469,25.202-64.076,58.903c-1.435,8.623-1.408,17.401-0.279,26.063l2.2,16.867
	c4.966,38.049,42.282,65.167,83.346,60.566l0,0c3.288-0.369,6.485-0.949,9.607-1.687l18.872,74.415L2204.94,746.233z"/>
<path fill="#1D2238" d="M2110.952,722.048c0,0,25.807-6.877,35.504-18.419c0,0-1.023,19.997-31.189,32.365L2110.952,722.048z"/>
<g>
	<path fill="#1D2238" d="M2053.83,610.653c0.7,2.698,1.127,5.382,1.486,8.06c0.214,1.342,0.305,2.677,0.438,4.013
		c0.132,1.336,0.27,2.674,0.31,4.004l0.195,3.997c0.064,1.331,0.02,2.657,0.035,3.984l0.002,3.986l-0.14,3.978l-0.158,4.505
		l-5.055-0.281c-1.819-0.102-3.641-0.167-5.457-0.297l-1.364-0.099l-0.342-0.026l-0.19-0.003l-0.326-0.015
		c-0.433,0.026-0.857,0.061-1.284,0.156c-0.833,0.234-1.646,0.646-2.333,1.253c-0.669,0.622-1.11,1.43-1.354,2.362
		c-0.259,0.931-0.244,1.958,0.141,2.967c0.219,0.485,0.438,1.008,0.778,1.493c0.349,0.469,0.778,0.911,1.281,1.305
		c0.521,0.357,1.086,0.727,1.736,1.009c0.573,0.25,1.578,0.46,2.458,0.697c1.789,0.508,3.581,1.01,5.361,1.658l0.075,0.027
		c0.14,0.051,0.204,0.196,0.152,0.324c-0.044,0.103-0.152,0.163-0.265,0.157l-5.461-0.267c-0.912-0.049-1.809-0.071-2.768-0.185
		c-0.934-0.153-1.851-0.411-2.711-0.796c-3.456-1.538-5.692-5.112-5.41-8.676c0.194-3.567,2.897-6.88,6.572-8.023
		c0.912-0.283,1.867-0.447,2.829-0.498c0.984-0.011,1.874,0.061,2.785,0.111l5.456,0.354l-0.563,0.455l1.223-15.864
		c0.389-5.288,0.851-10.573,1.317-15.858c0.01-0.138,0.141-0.241,0.288-0.229c0.12,0.01,0.212,0.088,0.24,0.19L2053.83,610.653z"/>
	<path fill="#1D2238" d="M2075.735,606.39c5.581,0.336,10.002,2.104,9.872,3.948c-0.129,1.842-4.759,3.064-10.342,2.727
		c-5.583-0.336-10.004-2.104-9.872-3.947C2065.521,607.273,2070.152,606.053,2075.735,606.39z"/>
	<path fill="#1D2238" d="M2034.113,609.265c5.367-1.46,10.172-1.207,10.735,0.566c0.561,1.772-3.337,4.393-8.704,5.852
		c-5.368,1.459-10.173,1.205-10.735-0.568C2024.849,613.343,2028.746,610.723,2034.113,609.265z"/>
	<ellipse fill="#1D2238" cx="2075.459" cy="624.607" rx="5.8" ry="5.375"/>
	<ellipse fill="#1D2238" cx="2035.324" cy="629.309" rx="6.276" ry="5.816"/>
	<path fill="#FFFFFF" d="M2045.718,675.261c0,0,19.505-6.007,29.741-18.688C2075.459,656.573,2065.528,686.275,2045.718,675.261z"/>
</g>
<path fill="#1D2238" d="M2186.991,560.8c-2.478-3.991-5.788-7.543-9.748-10.676c3.475-6.607,5.429-14.027,5.429-21.875
	c0-27.617-24.161-50.007-53.969-50.007c-29.81,0-53.972,22.39-53.972,50.007c0,2.795,0.261,5.532,0.735,8.199
	c-24.577,6.06-43.326,18.556-43.585,36.745c0,0-2.452,25.148,39.917,26.761c0,0-12.879-5.213-17.857-14.067
	c1.746,2.498,11.175,11.229,60.517,21.866l36.024,8.363l9.218-5.339l19.368,55.003
	C2179.069,665.783,2214.188,604.673,2186.991,560.8z"/>
<g>
	<path fill="#EB9481" d="M2158.787,606.662c8.178-0.916,15.797,5.941,17.019,15.314c1.223,9.374-4.413,17.716-12.591,18.631
		c-8.176,0.917-15.796-5.94-17.02-15.314C2144.974,615.919,2150.611,607.578,2158.787,606.662z"/>
	<path fill="#1D2238" d="M2151.513,619.677c-0.086-1.693,0.553-3.431,1.79-4.943c1.266-1.464,3.281-2.661,5.565-2.908
		c0.562-0.103,1.142-0.092,1.725-0.104c0.571,0.05,1.155,0.108,1.711,0.25c1.126,0.237,2.187,0.665,3.151,1.196
		c1.91,1.117,3.361,2.692,4.393,4.412c0.494,0.881,0.841,1.805,1.133,2.734c0.111,0.471,0.246,0.939,0.322,1.413
		c0.07,0.511,0.162,0.856,0.153,1.552c-0.011,0.632-0.036,1.387-0.49,2.361c-0.408,0.967-1.528,1.945-2.519,2.254
		c-1.985,0.627-3.049,0.216-4.04,0.017c-3.764-1.01-6.079-2.895-9.291-3.942l-0.088-0.027c-0.093-0.03-0.143-0.124-0.108-0.209
		c0.024-0.062,0.086-0.104,0.151-0.108c3.44-0.263,6.585,1.109,9.783,1.551c0.787,0.101,1.624,0.161,2.269-0.094
		c0.642-0.239,0.855-0.914,0.785-1.629c-0.147-1.459-0.613-2.933-1.382-4.229c-1.419-2.625-4.328-4.715-7.545-4.612
		c-3.234,0.046-5.986,2.396-7.114,5.188c-0.034,0.086-0.139,0.132-0.232,0.098c-0.069-0.023-0.113-0.082-0.117-0.148
		L2151.513,619.677z"/>
</g>
<path fill="#1AB394" d="M2075.459,536.447c0.722,1.886,55.11-18.712,101.786,13.679c0,0,3.281-5.7,4.226-11.332
	c0,0-38.462-31.815-106.739-13.748C2074.731,525.047,2073.379,531.002,2075.459,536.447z"/>
<g>
	<polygon fill="#EB9481" points="2219.635,1506.15 2575.033,1561.258 2605.479,1486.931 2282.859,1388.167 	"/>
</g>
<path fill="#EB9481" d="M2190.168,1511.292c-0.12,6.51-0.029,13.023,0.277,19.531l8.885,312.03h-79.978l-69.831-324.308
	c-0.956-4.442-1.811-8.898-2.559-13.366L2190.168,1511.292z"/>
<path fill="#1AB394" d="M2309.493,1259.5c0,0,19.376-88.075,0-154.502c-0.27-1.652-0.542-3.302-0.811-4.955
	c-9.788-59.865-20.448-119.613-29.447-179.589c-2.636-17.568-4.192-35.27-7.077-52.805c-0.206-1.247-0.428-2.538-0.66-3.862
	c-2.378-13.423-5.517-26.744-9.432-39.854c-0.201-0.673-0.402-1.344-0.608-2.016c-10.453-34.502-28.168-84.602-72.068-92.266
	c-51.326-8.96-90.062,43.126-107.761,79.814c-20.557,42.614-26.062,90.002-31.493,135.916
	c-7.226,61.049-12.383,122.392-16.028,183.716l-29.423,427.017c0,0,331.352,10.786,417.893-142.917L2309.493,1259.5z"/>
<path fill="#1AB394" d="M1993.468,283.488l0.024-0.114L840.066,85.37l-0.004,0.021c-23.762-4.672-49.693,8.922-54.676,33.851
	l-126.79,634.13c-1.137,5.687-0.989,11.318,0.247,16.641l0.901,3.223c4.767,14.777,18.074,26.621,35.566,29.623l1157.807,198.755
	c17.491,3.004,34.491-3.637,44.657-15.852l2.086-2.711c3.21-4.561,5.526-9.769,6.661-15.454l126.791-634.132
	C2038.422,307.893,2018.339,286.15,1993.468,283.488z"/>
<path fill="#F0F2F5" d="M1428.264,572.637c42.014,31.077,82.896,63.312,123.521,95.811c40.554,32.57,80.686,65.575,120.452,98.951
	c39.77,33.375,79.158,67.135,118.128,101.328c38.903,34.259,77.533,68.797,115.029,104.497
	c-42.028-31.064-82.92-63.291-123.538-95.796c-40.554-32.572-80.686-65.576-120.438-98.967
	c-39.755-33.39-79.146-67.148-118.111-101.342C1504.409,642.854,1465.77,608.324,1428.264,572.637z"/>
<path fill="#F0F2F5" d="M657.471,758.997c48.815-20.869,98.24-40.281,147.803-59.359c49.601-18.991,99.431-37.435,149.457-55.41
	c50.023-17.979,100.249-35.472,150.706-52.42c50.488-16.866,101.127-33.379,152.374-48.432
	c-48.81,20.885-98.229,40.307-147.796,59.378c-49.602,18.988-99.43,37.433-149.464,55.39
	c-50.032,17.96-100.258,35.454-150.716,52.402C759.344,727.405,708.712,743.929,657.471,758.997z"/>
<path fill="#F0F2F5" d="M2032.993,332.778c-59.58,20.513-118.686,42.061-177.814,63.552l-88.477,32.713
	c-14.761,5.422-29.457,10.983-44.157,16.531l-44.109,16.636l-44.11,16.633l-44.004,16.864l-87.973,33.806
	c-14.68,5.596-29.286,11.354-43.906,17.076l-43.862,17.177l-16.709,6.545c-37.708,14.766-81.284,7.283-110.774-19.024l-13.072-11.66
	l-34.309-30.595c-11.456-10.181-22.828-20.44-34.375-30.533l-69.069-60.76l-34.554-30.362l-34.756-30.168l-34.754-30.168
	c-11.59-10.051-23.142-20.141-34.831-30.097l-69.961-59.905c-46.908-39.683-93.757-79.422-141.47-118.333l-1.122,1.071
	L1281.65,566.76c30.613,27.542,76.086,35.349,115.315,19.796l636.661-252.402L2032.993,332.778z"/>
<path fill="#EB9481" d="M1971.64,793.153l-6.056-11.342c-4.886-9.152-16.649-13.161-26.771-9.122l-30.064,13.034
	c-5.752,2.494-8.808,8.4-7.306,14.117c1.664,6.322,8.334,10.367,15.251,9.246l22.119-3.579l-4.649,23.817l56.404,138.445
	l78.903-28.924L1971.64,793.153z"/>
<path fill="#1D2238" d="M1933.562,806.358c1.229-0.834,2.515-1.372,3.814-1.821c1.303-0.438,2.628-0.76,3.972-0.98
	c1.346-0.223,2.708-0.341,4.093-0.344c1.389,0.008,2.793,0.109,4.257,0.504c-1.228,0.836-2.512,1.375-3.815,1.825
	c-1.304,0.436-2.628,0.759-3.974,0.976c-1.344,0.218-2.709,0.337-4.093,0.339C1936.427,806.849,1935.022,806.75,1933.562,806.358z"
	/>
<g>
	<path fill="#1D2238" d="M2203.787,1869.817L2203.787,1869.817l-4.457-26.965h-79.978v12.884l-103.682,41.248
		c-15.504,6.168-25.468,20.382-25.247,36.015l225.347,0.722L2203.787,1869.817z"/>
	<path fill="#F4F4F6" d="M2215.822,1919.866c-18.566,0.897-37.133,1.338-55.698,1.618c-9.28,0.184-18.563,0.2-27.844,0.297
		l-27.848,0.039l-27.844-0.211c-9.28-0.159-18.563-0.229-27.845-0.473c-18.562-0.4-37.125-0.962-55.685-1.981
		c18.567-0.903,37.135-1.347,55.697-1.627c9.283-0.187,18.565-0.197,27.847-0.296l27.846-0.032l27.846,0.216
		c9.28,0.156,18.563,0.232,27.844,0.476C2178.701,1918.289,2197.263,1918.85,2215.822,1919.866z"/>
	<ellipse fill="#F4F4F6" cx="2168.422" cy="1888.782" rx="20.466" ry="18.964"/>
	<g>
		<path fill="#F4F4F6" d="M2029.693,1889.492c2.662-1.007,5.225-0.999,7.658-0.631c2.424,0.405,4.727,1.273,6.788,2.54
			c2.067,1.254,3.864,2.988,5.195,5.011c1.308,2.041,2.1,4.495,1.734,7.084l-0.437,0.229c-0.646-0.824-1.191-1.706-1.941-2.451
			c-0.354-0.386-0.666-0.8-1.049-1.164l-1.138-1.093c-1.579-1.396-3.28-2.681-5.129-3.768c-1.813-1.134-3.721-2.146-5.706-3.022
			c-0.991-0.438-1.999-0.845-3.019-1.22c-1.013-0.4-2.049-0.761-3.086-1.069L2029.693,1889.492z"/>
		<path fill="#F4F4F6" d="M2056.209,1879.168c2.661-1.004,5.225-0.999,7.654-0.628c2.426,0.403,4.729,1.272,6.791,2.54
			c2.068,1.254,3.862,2.986,5.196,5.01c1.307,2.04,2.1,4.494,1.733,7.084l-0.436,0.229c-0.649-0.824-1.191-1.707-1.941-2.451
			c-0.355-0.384-0.669-0.8-1.049-1.165l-1.136-1.093c-1.582-1.396-3.283-2.68-5.132-3.766c-1.813-1.133-3.723-2.146-5.705-3.023
			c-0.991-0.438-2-0.846-3.021-1.22c-1.012-0.4-2.047-0.762-3.084-1.069L2056.209,1879.168z"/>
		<path fill="#F4F4F6" d="M2080.745,1869.803c2.662-1.005,5.225-0.998,7.656-0.629c2.424,0.405,4.729,1.274,6.791,2.54
			c2.066,1.255,3.862,2.987,5.195,5.011c1.306,2.041,2.097,4.494,1.731,7.084l-0.434,0.229c-0.647-0.825-1.192-1.707-1.942-2.452
			c-0.354-0.384-0.669-0.799-1.048-1.165l-1.138-1.093c-1.58-1.394-3.281-2.68-5.131-3.767c-1.813-1.135-3.72-2.146-5.703-3.022
			c-0.993-0.438-2.001-0.845-3.022-1.219c-1.011-0.401-2.047-0.762-3.085-1.069L2080.745,1869.803z"/>
	</g>
</g>
<g>
	<path fill="#1D2238" d="M2617.678,1490.105L2617.678,1490.105l-19.867-5.354l-23.963,76.337l13.352,3.601l13.784,103.768
		c2.063,15.516,14.011,28.353,30.271,32.521l63.688-200.294L2617.678,1490.105z"/>
	<path fill="#F4F4F6" d="M2680.6,1496.768c-4.256,16.773-8.982,33.413-13.88,50.009c-2.4,8.311-4.976,16.573-7.469,24.859
		l-7.738,24.786l-7.995,24.715c-2.756,8.216-5.422,16.453-8.268,24.642c-5.598,16.402-11.364,32.763-17.607,48.99
		c4.247-16.772,8.978-33.413,13.872-50.009c2.399-8.312,4.98-16.573,7.471-24.859l7.743-24.785l8.003-24.713
		c2.753-8.216,5.424-16.452,8.271-24.642C2668.598,1529.356,2674.363,1512.997,2680.6,1496.768z"/>
	<ellipse fill="#F4F4F6" cx="2635.151" cy="1530.26" rx="20.465" ry="18.963"/>
	<g>
		<path fill="#F4F4F6" d="M2597.137,1653.888c-0.298-2.65,0.425-4.929,1.486-6.988c1.098-2.046,2.642-3.853,4.531-5.333
			c1.877-1.489,4.175-2.601,6.642-3.226c2.481-0.592,5.243-0.611,7.825,0.438l0.114,0.452c-1.032,0.344-2.099,0.583-3.081,1.042
			c-0.498,0.207-1.015,0.371-1.499,0.605l-1.449,0.708c-1.888,1.016-3.693,2.171-5.335,3.513c-1.682,1.297-3.264,2.711-4.728,4.23
			c-0.729,0.76-1.433,1.542-2.105,2.348c-0.698,0.786-1.362,1.609-1.969,2.445L2597.137,1653.888z"/>
		<path fill="#F4F4F6" d="M2593.847,1627.413c-0.3-2.65,0.425-4.928,1.487-6.987c1.093-2.045,2.638-3.852,4.53-5.332
			c1.876-1.49,4.173-2.604,6.641-3.225c2.483-0.593,5.245-0.612,7.827,0.437l0.114,0.449c-1.034,0.348-2.101,0.584-3.081,1.044
			c-0.498,0.209-1.017,0.371-1.499,0.607l-1.449,0.707c-1.886,1.017-3.694,2.172-5.336,3.513c-1.681,1.296-3.263,2.711-4.725,4.23
			c-0.732,0.761-1.435,1.543-2.107,2.349c-0.697,0.786-1.361,1.608-1.971,2.444L2593.847,1627.413z"/>
		<path fill="#F4F4F6" d="M2590.994,1602.966c-0.298-2.647,0.425-4.926,1.485-6.986c1.098-2.046,2.644-3.852,4.534-5.333
			c1.875-1.488,4.172-2.602,6.64-3.225c2.48-0.592,5.242-0.611,7.825,0.438l0.115,0.45c-1.033,0.348-2.101,0.583-3.082,1.043
			c-0.497,0.209-1.015,0.371-1.499,0.607l-1.449,0.706c-1.888,1.017-3.691,2.172-5.335,3.513c-1.681,1.297-3.264,2.712-4.727,4.232
			c-0.73,0.76-1.435,1.541-2.106,2.348c-0.698,0.785-1.36,1.608-1.968,2.444L2590.994,1602.966z"/>
	</g>
</g>
<path fill="#FFFFFF" d="M2147.465,779.454"/>
<g>
	<path fill="#EB9481" d="M1899.524,1017.632l218.176-6.259c16.55-1.233,32.072-7.935,43.739-18.88
		c6.813-6.387,12.103-14.03,15.529-22.434l37.524-118.196c7.972-25.103-7.233-51.495-34.181-59.328l0,0
		c-28.952-8.416-59.477,7.932-66.059,35.38l-23.516,98.098l-193.506,50.352l-37.504-16.921c-4.883-2.203-10.772-0.725-13.784,3.465
		l0,0c-3.095,4.301-2.167,10.074,2.144,13.354l12.339,9.386l-35.108,5.907h-54.153l0,0c1.101,7.917,6.771,14.649,14.793,17.563
		l12.092,4.391c12.54,4.555,25.796,7.181,39.249,7.779L1899.524,1017.632z"/>
	<path fill="#1D2238" d="M1785.958,1009.123c3.141-0.175,6.27-0.199,9.4-0.229c3.129-0.01,6.254,0.025,9.38,0.096
		c3.122,0.073,6.244,0.185,9.363,0.312c3.117,0.172,6.236,0.274,9.35,0.503l-0.367,0.02c2.689-0.389,5.371-0.821,8.07-1.155
		c2.693-0.36,5.391-0.713,8.1-1.007c2.7-0.327,5.412-0.58,8.128-0.833c2.718-0.237,5.437-0.458,8.174-0.575
		c-2.628,0.722-5.277,1.339-7.927,1.945c-2.652,0.584-5.306,1.17-7.975,1.681c-2.662,0.545-5.333,1.031-8.004,1.511
		c-2.67,0.504-5.355,0.912-8.034,1.361l-0.157,0.026l-0.208-0.008c-3.12-0.132-6.23-0.39-9.346-0.578
		c-3.112-0.235-6.226-0.482-9.334-0.772c-3.108-0.289-6.215-0.616-9.318-0.984
		C1792.153,1010.042,1789.049,1009.657,1785.958,1009.123z"/>
	<path fill="#1D2238" d="M2090.674,925.876c1.501-1.064,3.343-1.406,5.136-1.685c1.796-0.167,3.638-0.196,5.4,0.048
		c0.443,0.049,0.898,0.083,1.34,0.148l1.3,0.266c0.871,0.173,1.738,0.364,2.576,0.608c1.7,0.471,3.309,1.108,4.924,1.731
		c1.567,0.717,3.098,1.474,4.599,2.281c1.418,0.922,2.915,1.721,4.239,2.758c1.344,1.002,2.65,2.046,3.881,3.174
		c1.183,1.183,2.365,2.351,3.39,3.693l-0.19,0.244l-4.152-2.62c-1.393-0.859-2.837-1.645-4.252-2.469
		c-1.428-0.808-2.911-1.525-4.363-2.293c-1.493-0.691-2.976-1.408-4.5-2.036c-3.017-1.322-6.15-2.418-9.379-3.177
		c-3.2-0.704-6.651-1.214-9.818-0.393L2090.674,925.876z"/>
</g>
<path fill="#1D2238" d="M2057.67,889.866l-2.744,23.382l-2.524,23.319l-0.13,1.174l-1.157,0.286
	c-5.632,1.392-11.248,2.833-16.894,4.181c-5.64,1.358-11.269,2.757-16.924,4.069c-11.294,2.683-22.617,5.271-33.987,7.692
	c11.069-3.419,22.188-6.671,33.337-9.83c5.567-1.606,11.159-3.126,16.739-4.689c5.576-1.573,11.182-3.051,16.77-4.578l-1.286,1.459
	c0.187-3.937,0.546-7.865,0.96-11.79c0.463-3.918,0.99-7.833,1.697-11.722c0.342-1.946,0.707-3.889,1.147-5.82
	c0.403-1.936,0.857-3.865,1.366-5.78C2055.034,897.386,2056.17,893.571,2057.67,889.866z"/>
<path fill="#1D2238" d="M2309.493,1259.5c0,0-25.205,86.775-76.341,128.667C2233.153,1388.167,2304.646,1356.186,2309.493,1259.5z"
	/>
<g>
	<g>
		<path fill="#D2D6E1" d="M2806.157,574.183h-466.382V86.501h466.382V574.183z M2342.715,571.461h460.506V89.223h-460.506V571.461z"
			/>
		<g>
			<g>
				<rect id="XMLID_68_" x="2377.148" y="121.128" fill="#F1F2F5" width="391.641" height="418.427"/>
			</g>
			<g>
				<defs>
					<rect id="SVGID_1_" x="2377.148" y="121.128" width="391.641" height="418.427"/>
				</defs>
				<clipPath id="SVGID_2_">
					<use xlink:href="#SVGID_1_"  overflow="visible"/>
				</clipPath>
				<polyline opacity="0.45" clip-path="url(#SVGID_2_)" fill="#FFFFFF" enable-background="new    " points="2527.551,121.128 
					2377.148,319.608 2377.148,444.816 2475.578,337.264 2377.148,484.949 2377.148,539.556 2553.537,539.556 2716.385,345.291 
					2602.045,539.556 2692.131,539.556 2768.789,420.737 2768.789,121.128 2707.722,121.128 2541.411,330.341 2673.074,121.128 
					2527.551,121.128 				"/>
			</g>
		</g>
	</g>
	<g>
		<path fill="#D2D6E1" d="M2806.157,832.822h-213.016V610.267h213.016V832.822z M2596.08,830.099h207.141v-217.11H2596.08V830.099z"
			/>
		<g>
			<g>
				<rect id="XMLID_67_" x="2610.886" y="626.708" fill="#F1F2F5" width="177.528" height="189.673"/>
			</g>
			<g>
				<defs>
					<rect id="SVGID_3_" x="2610.886" y="626.708" width="177.528" height="189.673"/>
				</defs>
				<clipPath id="SVGID_4_">
					<use xlink:href="#SVGID_3_"  overflow="visible"/>
				</clipPath>
				<polyline opacity="0.45" clip-path="url(#SVGID_4_)" fill="#FFFFFF" enable-background="new    " points="2679.063,626.708 
					2610.886,716.678 2610.886,773.436 2655.504,724.683 2610.886,791.626 2610.886,816.38 2690.842,816.38 2764.663,728.32 
					2712.83,816.38 2753.666,816.38 2788.414,762.52 2788.414,626.708 2760.734,626.708 2685.344,721.544 2745.029,626.708 
					2679.063,626.708 				"/>
			</g>
		</g>
	</g>
	<g>
		<path fill="#D2D6E1" d="M2552.794,832.822h-213.017V610.267h213.017V832.822z M2342.715,830.099h207.141v-217.11h-207.141V830.099
			z"/>
		<g>
			<g>
				<rect id="XMLID_66_" x="2357.521" y="626.708" fill="#F1F2F5" width="177.528" height="189.673"/>
			</g>
			<g>
				<defs>
					<rect id="SVGID_5_" x="2357.521" y="626.708" width="177.528" height="189.673"/>
				</defs>
				<clipPath id="SVGID_6_">
					<use xlink:href="#SVGID_5_"  overflow="visible"/>
				</clipPath>
				<polyline opacity="0.45" clip-path="url(#SVGID_6_)" fill="#FFFFFF" enable-background="new    " points="2425.698,626.708 
					2357.521,716.678 2357.521,773.436 2402.14,724.683 2357.521,791.626 2357.521,816.38 2437.479,816.38 2511.297,728.32 
					2459.466,816.38 2500.302,816.38 2535.05,762.52 2535.05,626.708 2507.369,626.708 2431.98,721.544 2491.664,626.708 
					2425.698,626.708 				"/>
			</g>
		</g>
	</g>
</g>
<path fill="#19B193" d="M558.433,1172.741h92.853c28.208-20.198,50.334-49.274,60.891-80.828
	c-31.235,2.677-61.497,14.753-84.8,34.208c11.162-16.001,16.933-34.618,18.577-53.609c1.644-18.991-0.093-38.079-1.831-57.066
	c-35.162,17.088-63.368,48.27-75.315,83.354c-2.314-18.871-7.75-37.717-15.953-55.121c-5.235,21.563-10.493,43.308-10.693,65.409
	C541.959,1131.188,544.38,1154.885,558.433,1172.741z"/>
<rect x="503.516" y="903.581" fill="#1C2238" width="55.614" height="269.685"/>
<path fill="#19B193" d="M542.992,1172.741H399.747c-49.094-11.335-94.07-46.613-111.209-90.724
	c46.13-3.701,93.261,9.981,129.045,37.209c-56.916-35.24-92.096-98.742-90.463-162.153c38.505,5.559,73.313,27.815,98.37,55.468
	c25.055,27.654,42.276,60.569,58.257,93.5c-1.271-29.229,3.881-58.365,19.034-84.026
	C534.88,1064.404,552.453,1121.704,542.992,1172.741z"/>
</svg>
