<?xml version="1.0" encoding="utf-8"?>
<!-- Generator: Adobe Illustrator 16.0.0, SVG Export Plug-In . SVG Version: 6.00 Build 0)  -->
<!DOCTYPE svg PUBLIC "-//W3C//DTD SVG 1.1//EN" "http://www.w3.org/Graphics/SVG/1.1/DTD/svg11.dtd">
<svg version="1.1" id="Layer_1" xmlns="http://www.w3.org/2000/svg" xmlns:xlink="http://www.w3.org/1999/xlink" x="0px" y="0px"
	 width="3000px" height="2000px" viewBox="0 0 3000 2000" enable-background="new 0 0 3000 2000" xml:space="preserve">
<g>
	<path id="XMLID_69_" fill="#12B293" d="M1205.1,1021.858H924.502c-8.771,0-15.883-7.111-15.883-15.883V896.069
		c0-43.084,34.927-78.012,78.011-78.012H1205.1V1021.858z"/>
	<rect x="910.173" y="909.901" fill="#F0F2F5" width="293.374" height="36.535"/>
	<path fill="#1C2238" d="M1274.592,1021.858h-119.321V879.523c0-33.946,27.519-61.466,61.465-61.466h5.557
		c33.947,0,61.466,27.52,61.466,61.466v133.169C1283.758,1017.753,1279.654,1021.858,1274.592,1021.858z"/>
</g>
<path fill="#1D2238" d="M2183.996,753.95c0,0-33.142,0-37.876,36.704c-3.948,30.617,15.666,46.457,15.666,46.457l31.528-63.28
	L2183.996,753.95z"/>
<path fill="#EB9481" d="M2294.845,900.956l-29.701-99.684l-0.422,0.121c-5.368-27.104-30.804-45.899-58.684-42.529l0,0
	c-24.974,3.02-41.628,19.365-45.621,45.26c-1.021,6.626-1.003,13.371-0.198,20.026l1.567,12.96
	c3.535,29.237,30.103,50.073,59.339,46.538l0,0c2.34-0.283,4.617-0.729,6.841-1.296l13.437,57.178L2294.845,900.956z"/>
<path fill="#1D2238" d="M2227.928,882.372c0,0,18.373-5.283,25.277-14.152c0,0-0.729,15.365-22.205,24.869L2227.928,882.372z"/>
<g>
	<path fill="#1D2238" d="M2187.258,796.779c0.498,2.074,0.803,4.136,1.058,6.194c0.153,1.031,0.217,2.056,0.313,3.083
		c0.093,1.026,0.191,2.054,0.22,3.076l0.139,3.071c0.045,1.023,0.014,2.042,0.025,3.063l0.001,3.062l-0.099,3.056l-0.113,3.462
		l-3.598-0.216c-1.295-0.078-2.592-0.129-3.886-0.229l-0.971-0.076l-0.243-0.019l-0.136-0.003l-0.233-0.012
		c-0.307,0.021-0.61,0.047-0.914,0.12c-0.592,0.18-1.172,0.497-1.66,0.963c-0.478,0.479-0.791,1.099-0.965,1.815
		c-0.183,0.716-0.173,1.505,0.101,2.281c0.155,0.372,0.311,0.774,0.554,1.146c0.249,0.361,0.554,0.7,0.913,1.003
		c0.371,0.275,0.772,0.559,1.236,0.776c0.408,0.192,1.123,0.353,1.749,0.535c1.274,0.39,2.55,0.776,3.817,1.274l0.054,0.021
		c0.099,0.039,0.146,0.15,0.108,0.249c-0.031,0.079-0.108,0.125-0.188,0.121l-3.888-0.206c-0.649-0.037-1.288-0.054-1.97-0.142
		c-0.665-0.117-1.318-0.315-1.93-0.611c-2.461-1.182-4.054-3.928-3.852-6.666c0.138-2.741,2.063-5.287,4.679-6.165
		c0.65-0.218,1.329-0.344,2.015-0.383c0.701-0.009,1.334,0.047,1.982,0.085l3.885,0.271l-0.4,0.35l0.871-12.189
		c0.276-4.064,0.604-8.125,0.936-12.186c0.008-0.105,0.101-0.184,0.206-0.175c0.085,0.007,0.151,0.068,0.171,0.146L2187.258,796.779
		z"/>
	
		<ellipse transform="matrix(0.9979 0.065 -0.065 0.9979 56.397 -141.4798)" fill="#1D2238" cx="2202.658" cy="796.046" rx="7.212" ry="2.57"/>
	
		<ellipse transform="matrix(0.9595 -0.2815 0.2815 0.9595 -136.7622 644.3789)" fill="#1D2238" cx="2174.083" cy="798.127" rx="7.212" ry="2.57"/>
	<circle fill="#1D2238" cx="2202.657" cy="807.501" r="4.13"/>
	<circle fill="#1D2238" cx="2174.083" cy="811.114" r="4.469"/>
	<path fill="#FFFFFF" d="M2181.482,846.423c0,0,13.887-4.616,21.175-14.36C2202.657,832.063,2195.586,854.886,2181.482,846.423z"/>
</g>
<path fill="#1D2238" d="M2282.064,758.473c-1.762-3.067-4.119-5.796-6.939-8.203c2.475-5.078,3.866-10.779,3.866-16.808
	c0-21.221-17.203-38.425-38.425-38.425c-21.223,0-38.426,17.204-38.426,38.425c0,2.147,0.185,4.25,0.523,6.3
	c-17.498,4.656-30.846,14.258-31.031,28.234c0,0-1.745,19.323,28.42,20.563c0,0-9.17-4.006-12.715-10.81
	c1.244,1.919,7.957,8.628,43.087,16.802l25.649,6.426l6.562-4.103l13.79,42.264C2276.426,839.14,2301.43,792.184,2282.064,758.473z"
	/>
<g>
	
		<ellipse transform="matrix(0.9928 -0.12 0.12 0.9928 -80.4607 277.54)" fill="#EB9481" cx="2263.522" cy="806.644" rx="10.617" ry="13.136"/>
	<path fill="#1D2238" d="M2256.806,803.713c-0.062-1.302,0.393-2.637,1.275-3.799c0.901-1.125,2.335-2.044,3.961-2.234
		c0.401-0.078,0.814-0.071,1.229-0.079c0.407,0.038,0.822,0.083,1.217,0.191c0.803,0.183,1.557,0.511,2.245,0.919
		c1.359,0.858,2.393,2.068,3.127,3.391c0.352,0.675,0.598,1.386,0.806,2.1c0.079,0.362,0.176,0.722,0.23,1.086
		c0.05,0.393,0.116,0.657,0.109,1.193c-0.007,0.486-0.026,1.065-0.349,1.814c-0.29,0.742-1.088,1.494-1.793,1.731
		c-1.413,0.483-2.171,0.166-2.876,0.013c-2.68-0.775-4.328-2.224-6.615-3.028l-0.063-0.022c-0.066-0.023-0.101-0.095-0.077-0.161
		c0.017-0.048,0.061-0.08,0.108-0.083c2.45-0.202,4.688,0.853,6.965,1.192c0.56,0.078,1.156,0.124,1.615-0.072
		c0.457-0.183,0.61-0.702,0.559-1.252c-0.104-1.121-0.437-2.254-0.984-3.249c-1.01-2.017-3.081-3.623-5.372-3.544
		c-2.302,0.036-4.261,1.841-5.065,3.987c-0.024,0.066-0.099,0.101-0.165,0.075c-0.05-0.019-0.081-0.064-0.084-0.114
		L2256.806,803.713z"/>
</g>
<path fill="#1AB394" d="M2202.657,739.761c0.514,1.449,39.238-14.378,72.47,10.51c0,0,2.335-4.379,3.008-8.707
	c0,0-27.384-24.446-75.994-10.563C2202.141,731.001,2201.176,735.577,2202.657,739.761z"/>
<g>
	<polygon fill="#EB9481" points="2305.307,1484.86 2558.342,1527.203 2580.018,1470.091 2350.321,1394.204 	"/>
</g>
<path fill="#EB9481" d="M2284.328,1488.811c-0.087,5.001-0.021,10.006,0.197,15.007l6.326,239.757h-56.943l-49.717-249.19
	c-0.681-3.413-1.288-6.838-1.822-10.271L2284.328,1488.811z"/>
<path fill="#1AB394" d="M2369.284,1295.34c0,0,13.795-67.676,0-118.717c-0.192-1.269-0.385-2.537-0.577-3.806
	c-6.97-46.001-14.558-91.909-20.966-137.994c-1.877-13.499-2.984-27.1-5.039-40.574c-0.146-0.958-0.303-1.949-0.47-2.967
	c-1.693-10.314-3.927-20.549-6.714-30.623c-0.144-0.517-0.287-1.033-0.433-1.549c-7.443-26.51-20.056-65.006-51.311-70.895
	c-36.543-6.885-64.122,33.138-76.723,61.328c-14.636,32.744-18.555,69.155-22.423,104.435c-5.144,46.91-8.816,94.044-11.411,141.164
	l-20.949,328.11c0,0,235.914,8.288,297.529-109.813L2369.284,1295.34z"/>
<path fill="#1AB394" d="M2144.282,545.393l0.017-0.088l-821.21-152.142l-0.003,0.015c-16.919-3.589-35.381,6.856-38.929,26.01
	l-90.271,487.252c-0.81,4.37-0.704,8.697,0.175,12.786l0.642,2.477c3.395,11.355,12.868,20.455,25.322,22.762l824.329,152.719
	c12.454,2.308,24.558-2.795,31.795-12.18l1.486-2.083c2.286-3.504,3.934-7.506,4.743-11.875l90.271-487.253
	C2176.288,564.145,2161.989,547.438,2144.282,545.393z"/>
<path fill="#F0F2F5" d="M1741.87,767.568c29.913,23.879,59.021,48.648,87.944,73.62c28.874,25.026,57.446,50.386,85.759,76.032
	c28.315,25.643,56.36,51.584,84.105,77.857c27.698,26.324,55.202,52.862,81.897,80.293c-29.922-23.869-59.036-48.632-87.955-73.608
	c-28.873-25.028-57.446-50.387-85.748-76.043c-28.305-25.656-56.351-51.596-84.094-77.87
	C1796.084,821.521,1768.574,794.989,1741.87,767.568z"/>
<path fill="#F0F2F5" d="M1193.085,910.764c34.755-16.035,69.944-30.951,105.232-45.611c35.315-14.591,70.792-28.763,106.409-42.576
	c35.616-13.814,71.376-27.255,107.299-40.278c35.947-12.959,72-25.648,108.487-37.214c-34.751,16.047-69.937,30.971-105.227,45.625
	c-35.315,14.59-70.792,28.763-106.415,42.561c-35.621,13.8-71.381,27.242-107.305,40.264
	C1265.616,886.488,1229.567,899.186,1193.085,910.764z"/>
<path fill="#F0F2F5" d="M2172.423,583.266c-42.42,15.761-84.501,32.318-126.601,48.832l-62.992,25.135
	c-10.51,4.166-20.973,8.44-31.439,12.703l-31.405,12.782l-31.405,12.781l-31.33,12.958l-62.635,25.976
	c-10.451,4.299-20.85,8.723-31.26,13.121l-31.228,13.198l-11.897,5.029c-26.847,11.346-57.872,5.596-78.868-14.618l-9.307-8.959
	l-24.427-23.509c-8.156-7.823-16.253-15.706-24.474-23.461l-49.176-46.686l-24.601-23.33l-24.745-23.181l-24.745-23.181
	c-8.252-7.723-16.476-15.475-24.798-23.126l-49.811-46.03c-33.397-30.491-66.753-61.025-100.723-90.924l-0.798,0.824
	l353.727,343.453c21.796,21.163,54.172,27.161,82.102,15.211l453.287-193.941L2172.423,583.266z"/>
<path fill="#EB9481" d="M2128.74,937.008l-4.311-8.715c-3.479-7.032-11.854-10.112-19.061-7.009l-21.404,10.015
	c-4.095,1.916-6.271,6.454-5.201,10.847c1.184,4.858,5.933,7.966,10.858,7.105l15.747-2.75l-3.309,18.301l40.158,106.378
	l56.179-22.225L2128.74,937.008z"/>
<path fill="#1D2238" d="M2101.63,947.154c0.875-0.64,1.79-1.054,2.716-1.399c0.928-0.336,1.871-0.583,2.828-0.753
	c0.957-0.171,1.928-0.262,2.914-0.264c0.988,0.006,1.988,0.083,3.03,0.387c-0.874,0.643-1.788,1.057-2.715,1.402
	c-0.929,0.335-1.872,0.583-2.83,0.75c-0.957,0.167-1.929,0.259-2.915,0.261C2103.67,947.531,2102.67,947.456,2101.63,947.154z"/>
<g>
	<path fill="#1D2238" d="M2294.024,1764.295L2294.024,1764.295l-3.173-20.721h-56.943v9.9l-73.818,31.694
		c-11.038,4.739-18.133,15.662-17.975,27.674l160.441,0.554L2294.024,1764.295z"/>
	<path fill="#F4F4F6" d="M2302.593,1802.75c-13.22,0.689-26.438,1.028-39.655,1.244c-6.609,0.141-13.218,0.154-19.826,0.228
		l-19.826,0.03l-19.824-0.162c-6.608-0.122-13.217-0.176-19.825-0.364c-13.216-0.306-26.432-0.738-39.646-1.522
		c13.219-0.694,26.438-1.035,39.655-1.25c6.609-0.143,13.218-0.151,19.827-0.228l19.825-0.024l19.825,0.166
		c6.607,0.119,13.216,0.179,19.824,0.365C2276.163,1801.539,2289.379,1801.969,2302.593,1802.75z"/>
	<circle fill="#F4F4F6" cx="2268.845" cy="1778.866" r="14.571"/>
	<g>
		<path fill="#F4F4F6" d="M2170.073,1779.411c1.896-0.772,3.72-0.767,5.452-0.484c1.727,0.311,3.366,0.979,4.834,1.952
			c1.472,0.964,2.75,2.295,3.7,3.85c0.93,1.568,1.494,3.454,1.233,5.443l-0.31,0.176c-0.46-0.633-0.848-1.311-1.382-1.883
			c-0.252-0.296-0.475-0.615-0.746-0.896l-0.81-0.839c-1.125-1.072-2.336-2.059-3.653-2.894c-1.29-0.872-2.648-1.649-4.061-2.323
			c-0.706-0.336-1.424-0.65-2.151-0.937c-0.72-0.308-1.458-0.585-2.196-0.822L2170.073,1779.411z"/>
		<path fill="#F4F4F6" d="M2188.951,1771.479c1.896-0.772,3.72-0.767,5.451-0.483c1.727,0.311,3.367,0.979,4.835,1.952
			c1.472,0.964,2.75,2.294,3.7,3.849c0.93,1.568,1.494,3.454,1.233,5.444l-0.31,0.175c-0.461-0.633-0.848-1.311-1.382-1.883
			c-0.253-0.296-0.476-0.615-0.746-0.895l-0.81-0.84c-1.125-1.072-2.336-2.059-3.653-2.894c-1.29-0.871-2.649-1.649-4.061-2.323
			c-0.706-0.336-1.424-0.649-2.151-0.936c-0.72-0.308-1.458-0.586-2.196-0.823L2188.951,1771.479z"/>
		<path fill="#F4F4F6" d="M2206.421,1764.283c1.896-0.772,3.72-0.767,5.451-0.483c1.727,0.311,3.366,0.979,4.835,1.952
			c1.471,0.964,2.75,2.295,3.699,3.85c0.93,1.568,1.494,3.453,1.233,5.443l-0.309,0.176c-0.461-0.633-0.849-1.312-1.382-1.884
			c-0.253-0.295-0.477-0.614-0.746-0.895l-0.811-0.839c-1.125-1.072-2.336-2.06-3.652-2.895c-1.291-0.871-2.649-1.648-4.061-2.322
			c-0.707-0.336-1.424-0.65-2.152-0.937c-0.719-0.308-1.457-0.585-2.195-0.822L2206.421,1764.283z"/>
	</g>
</g>
<g>
	<path fill="#1D2238" d="M2588.703,1472.531L2588.703,1472.531l-14.143-4.113l-17.063,58.656l9.507,2.766l9.814,79.733
		c1.468,11.922,9.975,21.786,21.552,24.988l45.345-153.901L2588.703,1472.531z"/>
	<path fill="#F4F4F6" d="M2633.503,1477.651c-3.03,12.887-6.396,25.673-9.882,38.425c-1.71,6.386-3.543,12.735-5.318,19.102
		l-5.509,19.045l-5.692,18.99c-1.963,6.312-3.861,12.642-5.887,18.934c-3.985,12.604-8.092,25.174-12.537,37.643
		c3.026-12.887,6.392-25.674,9.877-38.426c1.709-6.386,3.547-12.734,5.319-19.101l5.514-19.044l5.697-18.989
		c1.96-6.312,3.862-12.641,5.888-18.934C2624.958,1502.691,2629.063,1490.122,2633.503,1477.651z"/>
	<circle fill="#F4F4F6" cx="2601.144" cy="1503.385" r="14.571"/>
	<g>
		<path fill="#F4F4F6" d="M2574.079,1598.378c-0.212-2.036,0.303-3.786,1.058-5.369c0.781-1.571,1.881-2.96,3.226-4.098
			c1.337-1.144,2.972-1.999,4.729-2.478c1.766-0.454,3.733-0.47,5.571,0.337l0.082,0.346c-0.736,0.266-1.495,0.448-2.194,0.801
			c-0.354,0.16-0.723,0.285-1.067,0.466l-1.032,0.544c-1.344,0.78-2.629,1.668-3.799,2.699c-1.197,0.996-2.323,2.083-3.365,3.25
			c-0.52,0.585-1.021,1.186-1.5,1.805c-0.496,0.604-0.969,1.236-1.402,1.879L2574.079,1598.378z"/>
		<path fill="#F4F4F6" d="M2571.736,1578.036c-0.212-2.036,0.303-3.786,1.059-5.369c0.779-1.571,1.879-2.96,3.225-4.098
			c1.336-1.144,2.971-1.999,4.729-2.477c1.767-0.455,3.734-0.47,5.572,0.336l0.082,0.346c-0.736,0.266-1.496,0.448-2.194,0.801
			c-0.354,0.16-0.724,0.285-1.067,0.467l-1.032,0.543c-1.343,0.781-2.63,1.668-3.799,2.699c-1.197,0.996-2.323,2.083-3.364,3.251
			c-0.521,0.584-1.022,1.185-1.5,1.804c-0.496,0.604-0.97,1.236-1.403,1.879L2571.736,1578.036z"/>
		<path fill="#F4F4F6" d="M2569.706,1559.252c-0.212-2.035,0.303-3.785,1.058-5.369c0.781-1.571,1.881-2.959,3.226-4.098
			c1.336-1.143,2.972-1.999,4.729-2.477c1.766-0.455,3.733-0.47,5.571,0.336l0.082,0.346c-0.736,0.266-1.496,0.448-2.194,0.801
			c-0.354,0.16-0.723,0.285-1.067,0.467l-1.032,0.543c-1.344,0.781-2.629,1.668-3.799,2.699c-1.197,0.996-2.323,2.084-3.365,3.251
			c-0.52,0.584-1.021,1.185-1.5,1.804c-0.496,0.604-0.969,1.236-1.402,1.879L2569.706,1559.252z"/>
	</g>
</g>
<path fill="#FFFFFF" d="M2253.924,926.482"/>
<g>
	<path fill="#EB9481" d="M2077.396,1109.493l155.337-4.809c11.782-0.949,22.833-6.097,31.14-14.506
		c4.851-4.909,8.617-10.782,11.057-17.239l26.717-90.819c5.675-19.289-5.15-39.568-24.336-45.587l0,0
		c-20.613-6.467-42.346,6.095-47.031,27.186l-16.744,75.377l-137.771,38.689l-26.702-13.002c-3.477-1.692-7.67-0.556-9.814,2.662
		l0,0c-2.204,3.305-1.543,7.741,1.526,10.262l8.785,7.212l-24.997,4.539h-38.556l0,0c0.784,6.084,4.821,11.257,10.533,13.495
		l8.608,3.374c8.929,3.499,18.367,5.518,27.946,5.979L2077.396,1109.493z"/>
	<path fill="#1D2238" d="M1996.54,1102.954c2.235-0.133,4.464-0.152,6.692-0.175c2.228-0.007,4.454,0.019,6.678,0.074
		c2.224,0.055,4.445,0.141,6.667,0.239c2.219,0.132,4.441,0.211,6.657,0.387l-0.261,0.014c1.915-0.299,3.824-0.631,5.746-0.888
		c1.918-0.277,3.838-0.547,5.765-0.773c1.923-0.251,3.855-0.446,5.788-0.642c1.935-0.18,3.871-0.35,5.82-0.44
		c-1.871,0.555-3.757,1.028-5.644,1.494c-1.889,0.449-3.778,0.898-5.677,1.292c-1.896,0.418-3.797,0.793-5.7,1.16
		c-1.899,0.388-3.812,0.701-5.719,1.047l-0.113,0.021l-0.147-0.007c-2.222-0.102-4.437-0.3-6.654-0.445
		c-2.216-0.179-4.432-0.37-6.646-0.593c-2.213-0.222-4.425-0.474-6.635-0.757C2000.95,1103.661,1998.741,1103.365,1996.54,1102.954z
		"/>
	<path fill="#1D2238" d="M2213.49,1038.99c1.069-0.817,2.379-1.081,3.656-1.295c1.279-0.128,2.59-0.15,3.845,0.037
		c0.316,0.038,0.64,0.064,0.954,0.114l0.926,0.204c0.62,0.134,1.237,0.28,1.834,0.468c1.21,0.361,2.355,0.851,3.506,1.33
		c1.116,0.55,2.205,1.133,3.273,1.753c1.01,0.708,2.077,1.322,3.019,2.119c0.957,0.769,1.888,1.572,2.762,2.438
		c0.843,0.909,1.685,1.807,2.415,2.838l-0.136,0.188l-2.956-2.013c-0.992-0.66-2.021-1.264-3.027-1.898
		c-1.018-0.621-2.074-1.171-3.107-1.761c-1.063-0.533-2.119-1.082-3.204-1.565c-2.148-1.015-4.379-1.858-6.678-2.441
		c-2.278-0.54-4.735-0.933-6.991-0.302L2213.49,1038.99z"/>
</g>
<path fill="#1D2238" d="M2189.992,1011.32l-1.953,17.967l-1.799,17.918l-0.091,0.902l-0.825,0.22
	c-4.01,1.07-8.008,2.177-12.027,3.213c-4.016,1.043-8.023,2.118-12.05,3.126c-8.041,2.062-16.102,4.05-24.198,5.91
	c7.881-2.627,15.799-5.126,23.736-7.552c3.963-1.235,7.944-2.403,11.917-3.604c3.97-1.208,7.961-2.344,11.94-3.518l-0.916,1.122
	c0.133-3.025,0.389-6.044,0.683-9.059c0.33-3.011,0.705-6.019,1.209-9.007c0.244-1.495,0.503-2.987,0.817-4.472
	c0.288-1.487,0.61-2.969,0.973-4.441C2188.115,1017.099,2188.925,1014.167,2189.992,1011.32z"/>
<path fill="#1D2238" d="M2369.284,1295.34c0,0-17.945,66.677-54.353,98.864C2314.932,1394.204,2365.833,1369.63,2369.284,1295.34z"
	/>
<g>
	<g>
		<path fill="#D2D6E1" d="M2722.897,768.756h-332.052V394.031h332.052V768.756z M2392.938,766.665h327.868V396.123h-327.868V766.665
			z"/>
		<g>
			<defs>
				<rect id="XMLID_68_" x="2417.453" y="420.639" width="278.838" height="321.51"/>
			</defs>
			<use xlink:href="#XMLID_68_"  overflow="visible" fill="#F1F2F5"/>
			<clipPath id="XMLID_2_">
				<use xlink:href="#XMLID_68_"  overflow="visible"/>
			</clipPath>
			<polyline opacity="0.45" clip-path="url(#XMLID_2_)" fill="#FFFFFF" points="2524.535,420.639 2417.453,573.146 
				2417.453,669.354 2487.532,586.713 2417.453,700.19 2417.453,742.149 2543.037,742.149 2658.98,592.88 2577.573,742.149 
				2641.713,742.149 2696.291,650.852 2696.291,420.639 2652.813,420.639 2534.403,581.394 2628.145,420.639 2524.535,420.639 			
				"/>
		</g>
	</g>
	<g>
		<path fill="#D2D6E1" d="M2722.897,967.488h-151.662V796.482h151.662V967.488z M2573.327,965.396h147.479V798.574h-147.479V965.396
			z"/>
		<g>
			<defs>
				<rect id="XMLID_67_" x="2583.868" y="809.115" width="126.396" height="145.74"/>
			</defs>
			<use xlink:href="#XMLID_67_"  overflow="visible" fill="#F1F2F5"/>
			<clipPath id="XMLID_3_">
				<use xlink:href="#XMLID_67_"  overflow="visible"/>
			</clipPath>
			<polyline opacity="0.45" clip-path="url(#XMLID_3_)" fill="#FFFFFF" points="2632.408,809.115 2583.868,878.246 
				2583.868,921.857 2615.635,884.396 2583.868,935.835 2583.868,954.855 2640.795,954.855 2693.353,887.192 2656.45,954.855 
				2685.524,954.855 2710.265,913.471 2710.265,809.115 2690.557,809.115 2636.881,881.985 2679.374,809.115 2632.408,809.115 			
				"/>
		</g>
	</g>
	<g>
		<path fill="#D2D6E1" d="M2542.508,967.488h-151.662V796.482h151.662V967.488z M2392.938,965.396h147.479V798.574h-147.479V965.396
			z"/>
		<g>
			<defs>
				<rect id="XMLID_66_" x="2403.479" y="809.115" width="126.396" height="145.74"/>
			</defs>
			<use xlink:href="#XMLID_66_"  overflow="visible" fill="#F1F2F5"/>
			<clipPath id="XMLID_4_">
				<use xlink:href="#XMLID_66_"  overflow="visible"/>
			</clipPath>
			<polyline opacity="0.45" clip-path="url(#XMLID_4_)" fill="#FFFFFF" points="2452.02,809.115 2403.479,878.246 2403.479,921.857 
				2435.246,884.396 2403.479,935.835 2403.479,954.855 2460.406,954.855 2512.963,887.192 2476.061,954.855 2505.135,954.855 
				2529.875,913.471 2529.875,809.115 2510.167,809.115 2456.492,881.985 2498.985,809.115 2452.02,809.115 			"/>
		</g>
	</g>
</g>
<path fill="#19B193" d="M1122.572,1228.676h66.109c20.084-15.521,35.836-37.862,43.352-62.107
	c-22.238,2.057-43.784,11.335-60.375,26.285c7.947-12.295,12.056-26.6,13.227-41.192c1.17-14.594-0.067-29.261-1.304-43.849
	c-25.034,13.13-45.116,37.088-53.622,64.046c-1.648-14.5-5.518-28.98-11.359-42.353c-3.727,16.568-7.47,33.277-7.613,50.26
	C1110.844,1196.747,1112.567,1214.954,1122.572,1228.676z"/>
<rect x="1083.473" y="1021.858" fill="#1C2238" width="39.595" height="207.221"/>
<path fill="#19B193" d="M1111.579,1228.676h-101.987c-34.954-8.709-66.976-35.817-79.179-69.71
	c32.844-2.844,66.4,7.669,91.877,28.591c-40.522-27.079-65.57-75.872-64.407-124.596c27.414,4.271,52.197,21.372,70.037,42.62
	c17.839,21.249,30.1,46.54,41.477,71.844c-0.905-22.458,2.764-44.847,13.552-64.565
	C1105.804,1145.432,1118.315,1189.46,1111.579,1228.676z"/>
</svg>
