<?xml version="1.0" encoding="utf-8"?>
<!-- Generator: Adobe Illustrator 16.0.0, SVG Export Plug-In . SVG Version: 6.00 Build 0)  -->
<!DOCTYPE svg PUBLIC "-//W3C//DTD SVG 1.1//EN" "http://www.w3.org/Graphics/SVG/1.1/DTD/svg11.dtd">
<svg version="1.1" id="Layer_1" xmlns="http://www.w3.org/2000/svg" xmlns:xlink="http://www.w3.org/1999/xlink" x="0px" y="0px"
	 width="612px" height="792px" viewBox="0 0 612 792" enable-background="new 0 0 612 792" xml:space="preserve">
<polygon fill="#1AB394" points="223.244,24.318 367.676,24.318 381.117,325.08 236.683,325.08 "/>
<polygon opacity="0.56" fill="#FAFAFA" enable-background="new    " points="227.555,28.456 371.985,28.456 385.427,329.215 
	240.992,329.215 "/>
<polygon opacity="0.07" fill="#1AB394" enable-background="new    " points="231.861,32.581 376.295,32.581 389.748,333.34 
	245.316,333.34 "/>
<polygon fill="#FFFFFF" points="248.301,163.756 371.583,163.756 372.612,186.77 249.33,186.77 "/>
<polygon fill="#1AB394" points="303.785,146.963 370.836,146.963 371.289,157.257 304.238,157.257 "/>
<polygon fill="#FFFFFF" points="251.077,225.863 374.36,225.863 375.39,248.875 252.106,248.875 "/>
<polygon opacity="0.47" fill="#1AB394" enable-background="new    " points="273.687,279.951 356.587,279.951 357.823,307.526 
	274.923,307.526 "/>
<path fill="#FFFFFF" d="M279.232,311.812h82.9c0.036,0.01,0.072,0.01,0.111,0c0.012-0.035,0.012-0.074,0-0.109l-1.225-27.59
	c0-0.074-0.062-0.135-0.137-0.135c-0.003,0-0.009,0-0.012,0h-82.9c-0.03-0.016-0.069-0.016-0.101,0
	c-0.017,0.031-0.017,0.068,0,0.098l1.2,27.649C279.101,311.785,279.165,311.819,279.232,311.812z M361.987,311.519h-82.609
	l-1.223-27.297h82.607L361.987,311.519z"/>
<polygon fill="#1AB394" points="318.266,209.069 373.616,209.069 374.066,219.376 318.73,219.376 "/>
<path fill="#FFFFFF" d="M275.267,89.422c0.315,6.697,2.696,13.133,6.815,18.422c6.184,8.097,15.766,12.874,25.951,12.938
	c16.431,0.125,29.854-13.095,29.98-29.527c0.006-0.611-0.011-1.222-0.045-1.832c-0.892-17.471-15.247-31.219-32.741-31.358
	c-16.419-0.153-29.854,13.033-30.009,29.452C275.216,88.151,275.23,88.788,275.267,89.422z"/>
<path fill="#1AB394" d="M272.316,64.625c0.078,1.78,0.713,3.492,1.812,4.896c1.645,2.15,4.195,3.42,6.902,3.439
	c2.629,0.017,5.096-1.271,6.587-3.439c0.97-1.441,1.451-3.158,1.37-4.896c-0.246-4.638-4.058-8.284-8.703-8.323
	c-4.366-0.04-7.938,3.469-7.979,7.834C272.305,64.299,272.308,64.461,272.316,64.625z"/>
<path fill="#263238" d="M358.301,175.263c0.123,2.046,1.808,3.649,3.857,3.673c1.924,0.023,3.504-1.521,3.529-3.448
	c0-0.074,0-0.15-0.006-0.225c-0.111-2.053-1.801-3.662-3.854-3.672c-1.936-0.016-3.516,1.538-3.529,3.471
	C358.296,175.128,358.299,175.195,358.301,175.263z"/>
<path fill="#263238" d="M341.804,175.263c0.114,2.05,1.801,3.657,3.854,3.673c1.927,0.016,3.502-1.533,3.519-3.46
	c0-0.071,0-0.143-0.003-0.213c-0.112-2.047-1.798-3.656-3.846-3.672c-1.927-0.023-3.507,1.521-3.529,3.446
	C341.798,175.111,341.798,175.188,341.804,175.263z"/>
<path fill="#263238" d="M325.291,175.263c0.115,2.05,1.805,3.657,3.854,3.673c1.936,0.016,3.516-1.539,3.529-3.474
	c0-0.066,0-0.133-0.003-0.199c-0.117-2.049-1.804-3.656-3.856-3.672c-1.927-0.023-3.507,1.521-3.529,3.446
	C325.286,175.111,325.286,175.188,325.291,175.263z"/>
<path fill="#263238" d="M361.081,237.369c0.123,2.045,1.807,3.648,3.854,3.672c1.935,0.016,3.515-1.539,3.529-3.473
	c0.003-0.066,0-0.133-0.003-0.199c-0.117-2.049-1.804-3.656-3.856-3.672c-1.933-0.016-3.513,1.539-3.529,3.471
	C361.076,237.235,361.078,237.302,361.081,237.369z"/>
<path fill="#263238" d="M344.583,237.369c0.115,2.043,1.796,3.648,3.843,3.672c1.928,0.023,3.508-1.52,3.529-3.447
	c0-0.074-0.002-0.15-0.005-0.225c-0.115-2.049-1.804-3.656-3.854-3.672c-1.927-0.019-3.504,1.531-3.521,3.459
	C344.575,237.227,344.578,237.298,344.583,237.369z"/>
<path fill="#263238" d="M328.032,237.369c0.114,2.049,1.804,3.656,3.856,3.672c1.938,0.008,3.519-1.558,3.527-3.498
	c0-0.057,0-0.115-0.003-0.174c-0.123-2.047-1.807-3.65-3.854-3.672c-1.927-0.023-3.507,1.52-3.532,3.445
	C328.026,237.218,328.029,237.292,328.032,237.369z"/>
<path fill="#263238" d="M311.557,237.369c0.123,2.045,1.807,3.648,3.854,3.672c1.941,0.008,3.521-1.558,3.53-3.498
	c0-0.057,0-0.115-0.003-0.174c-0.123-2.047-1.807-3.65-3.856-3.672c-1.933-0.016-3.513,1.539-3.53,3.471
	C311.551,237.235,311.554,237.302,311.557,237.369z"/>
<path fill="#263238" d="M294.986,237.369c0.12,2.045,1.804,3.648,3.854,3.672c1.927,0.023,3.508-1.52,3.529-3.447
	c0-0.074,0-0.15-0.005-0.225c-0.118-2.049-1.804-3.656-3.857-3.672c-1.933-0.016-3.513,1.539-3.526,3.471
	C294.98,237.235,294.98,237.302,294.986,237.369z"/>
<ellipse transform="matrix(0.715 0.6991 -0.6991 0.715 142.4295 -191.5645)" fill="#1AB394" cx="306.167" cy="78.907" rx="12.975" ry="12.401"/>
<path fill="#1AB394" d="M282.082,107.844c6.184,8.097,15.766,12.874,25.951,12.938c9.897,0.084,19.186-4.768,24.773-12.938
	c-5.949-5.924-15.363-9.793-25.789-9.793C296.589,98.051,287.505,101.92,282.082,107.844z"/>
<ellipse transform="matrix(0.715 0.6991 -0.6991 0.715 142.4295 -191.5645)" opacity="0.1" fill="#FFFFFF" enable-background="new    " cx="306.167" cy="78.907" rx="12.975" ry="12.401"/>
<path opacity="0.1" fill="#FFFFFF" enable-background="new    " d="M282.082,107.844c6.184,8.097,15.766,12.874,25.951,12.938
	c9.897,0.084,19.186-4.768,24.773-12.938c-5.949-5.924-15.363-9.793-25.789-9.793C296.589,98.051,287.505,101.92,282.082,107.844z"
	/>
<path fill="#1C0E0C" d="M425.479,516.541c0,0,4.928,9.682,1.544,13.188H383.53c0,0,0.243-6.783,10.718-7.855
	c9.402-0.959,15.124-5.344,15.124-5.344L425.479,516.541z"/>
<path fill="#1C0E0C" d="M427.691,529.729h-44.656c-0.327,0-0.593,0.248-0.593,0.557v1.318c0,0.309,0.266,0.561,0.593,0.561h44.656
	c0.326,0,0.593-0.252,0.593-0.561v-1.318C428.284,529.977,428.018,529.729,427.691,529.729z"/>
<path fill="#1C0E0C" d="M406.559,521.555l-1.46-3.115c-0.35-0.742-1.267-1.078-2.053-0.75c-0.022,0.01-0.048,0.02-0.072,0.029l0,0
	c-0.696,0.332-1.023,1.102-0.764,1.797l0.201,0.523"/>
<path fill="#1C0E0C" d="M402.246,523l-1.415-3.193c-0.305-0.646-1.107-0.941-1.793-0.65c-0.022,0.008-0.042,0.016-0.062,0.023l0,0
	c-0.606,0.291-0.892,0.965-0.668,1.572l0.12,0.439"/>
<path fill="#1C0E0C" d="M397.895,524.299l-0.934-3.227c-0.21-0.68-0.965-1.064-1.682-0.863c-0.022,0.008-0.047,0.014-0.066,0.021
	l0,0c-0.646,0.211-1.066,0.799-0.968,1.65"/>
<path fill="#1C0E0C" d="M502.923,516.541c0,0,4.928,9.682,1.544,13.188h-41.067c0,0,0.246-6.783,10.723-7.855
	c9.399-0.959,15.125-5.344,15.125-5.344L502.923,516.541z"/>
<path fill="#1C0E0C" d="M505.135,529.729H462.91c-0.327,0-0.593,0.248-0.593,0.557v1.318c0,0.309,0.266,0.561,0.593,0.561h42.225
	c0.33,0,0.594-0.252,0.594-0.561v-1.318C505.729,529.977,505.462,529.729,505.135,529.729z"/>
<path fill="#1C0E0C" d="M486.431,521.555l-1.454-3.115c-0.344-0.742-1.262-1.078-2.045-0.75c-0.025,0.01-0.05,0.02-0.075,0.029l0,0
	c-0.696,0.332-1.026,1.102-0.767,1.797l0.201,0.523"/>
<path fill="#1C0E0C" d="M482.121,523l-1.415-3.193c-0.306-0.645-1.105-0.939-1.793-0.652c-0.02,0.008-0.042,0.018-0.059,0.025l0,0
	c-0.612,0.289-0.897,0.963-0.672,1.572l0.123,0.439"/>
<path fill="#1C0E0C" d="M477.767,524.299l-0.932-3.227c-0.213-0.68-0.971-1.064-1.689-0.859c-0.02,0.004-0.042,0.01-0.062,0.018l0,0
	c-0.643,0.211-1.065,0.799-0.968,1.65"/>
<path id="PANTS" fill="#C5DCDD" d="M413.352,307.31c-3.277,11.533-4.404,50.298-5.464,107.423
	c-0.77,41.45-4.584,100.455-4.584,100.455s10.023,4.111,27.743,0.914c0,0,16.974-52.82,10.924-91.309
	c-0.968-6.166,8.209-42.686,8.209-42.686s36.522,124.557,36.522,134.756c0,0,14.235,2.586,22.695,0c0,0,12.772-56.747-7.492-89.794
	c-10.913-17.798-8.413-82.892-8.698-88.135c-1.004-18.502-10.588-32.451-10.588-32.451L413.352,307.31z"/>
<path id="SHADOW" fill="#C5DCDD" d="M450.177,382.565c1.208-5.023,7.506-41.349,9.198-42.73c1.692-1.382,4.592-3.197,6.527-5.025"/>
<path id="SHADOW-2" d="M412.214,312.956c25.344,12.758,63.824,6.519,72.994-2.016c-0.782-1.517-1.646-2.994-2.589-4.429
	l-69.268,0.816C412.857,309.182,412.474,311.06,412.214,312.956z"/>
<path id="HAND" fill="#FCBE9F" d="M481.086,285.434c0.201,1.236,0.484,2.457,0.851,3.657c9.998-0.151,18.833-1.531,23.075-5.379
	c12.348-11.196,3.065-38.566,2.486-40.226c-4.323,2.715-10.535,5.748-19.393,8.555C484.112,267.25,480.465,281.385,481.086,285.434z
	"/>
<path id="SHADOW-3" d="M507.498,243.477c-4.323,2.715-10.535,5.747-19.393,8.554c-0.92,3.508-1.82,6.957-2.654,10.236
	c11.912-5.027,17.947-11.021,23.157-15.119L507.498,243.477z"/>
<path fill="#FCBE9F" d="M324.078,193.233c0.598-0.734,1.605-0.883,1.809-1.188c0.202-0.304,0.135-1.069,0.73-1.561
	c0.599-0.493,1.469-0.417,1.84-0.704c0.372-0.287,0.118-1.126,0.825-1.842c0.705-0.718,1.72-0.627,1.946-0.844
	c0.227-0.216-3.725-6.717-2.218-7.558c1.505-0.841,9.202,8.375,10.718,10.537c3.127,4.452,3.16,10.042,3.574,12.045
	c0.03,0.021,0.059,0.046,0.086,0.074c1.209,1.37,29.729,28.083,34.803,36.987l4.52-6.471l25.929,17.338
	c0,0-18.847,25.88-35.521,20.402c-15.782-5.184-33.723-55.557-37.04-62.491c-5.442-1.015-9.989-6.729-11.478-9.332
	C322.66,195.268,323.482,193.971,324.078,193.233z"/>
<path id="SHADOW-4" d="M381.433,234.53c4.341,9.461,11.769,17.364,21.199,22.556c2.143-2.229,4.146-4.578,5.994-7.032
	l-25.929-17.338L381.433,234.53z"/>
<path id="T-SHIRT" fill="#F4F1ED" d="M488.105,252.034c-3.993,15.216-7.641,29.353-7.02,33.4c1.304,8.493,8.53,18.954,5.141,21.396
	c-9.489,6.835-40.119,13.938-75.333,2.25c0,0,4.509-8.034-0.366-40.121c-0.725-4.742-1.67-11.342-2.638-18.604h-0.02
	c-15.823-5.257-28.093-20.869-28.093-20.869s7.683-19.297,16.168-25.803c5.361-4.106,33.13-11.465,35.396-12.713l32.951-0.415
	c2.198,0.178,25.729,7.222,35.403,13.952c8.805,6.126,17.061,30.577,17.061,30.577S512.214,244.382,488.105,252.034z"/>
<path fill="#FCBE9F" d="M465.279,190.733c-2.627-1.159-11.809-10.08-10.359-20.851l-20.419,2.194c0,0-2.042,13.387-5.42,20.14
	c7.165,1.711,14.534,2.536,21.923,2.456C463.189,194.533,465.279,190.733,465.279,190.733z"/>
<path d="M431.648,185.499c2.056-0.227,6.427-1.072,8.748-3.095c3.775-3.292,9.078-10.565,9.129-11.896l-15.024,1.57
	C434.501,172.078,433.236,178.781,431.648,185.499z"/>
<path id="FACE" fill="#FCBE9F" d="M444.595,170.624c0,0-3.211,5.409-6.506,6.188c-3.292,0.779-10.84,0.171-13.136-1.125
	c-1.418-0.798-0.99-7.434-0.716-9.845c0.05-0.464-3.826-2.014-3.571-3.425c0.266-1.505,4.659-5.064,5.062-7.061
	c1.136-5.854,2.68-11.381,3.183-11.584c0.825-0.343,13.746,0.434,15.278,3.767c1.53,3.333-0.399,13.652-0.399,13.652
	s4.17-2.299,5.42,0.774C451.032,166.459,444.595,170.624,444.595,170.624z"/>
<path d="M420.437,140.027c-4.495,3.426,2.26,17.586,15.946,7.533"/>
<path d="M469.376,150.96c-2.638-4.447-7.825-0.729-7.825-0.729"/>
<path fill="#1C0E0C" d="M424.59,165.051c0,0,5.064,3.89,7.92,4.218c2.853,0.33,5.225-7.777,6.107-11.358
	c1.975-8.32,1.746-11.647-6.44-8.81c-10.795,3.745-12.957-8.873-8.79-10.993c2.651-1.354,3.936-0.935,7.677,0.857
	c4.167,1.989,12.999-4.604,23.495-1.688c9.859,2.734,8.354,12.135,8.354,12.135s3.888-0.667,4.595,4.704
	c0.557,4.247-5.68,11.771-10.49,20.188c-1.346,2.36-7.887,0.95-9.498-1.429c0,0-2.156-3.474,0.546-7.69
	c2.209-3.455-1.601-6.243-5.393-3.229c0.554,2.416,1.765,8.941-0.521,12.308c-3.414,5.036-21.02,5.787-21.459,2.988
	C420.254,174.455,424.59,165.051,424.59,165.051z"/>
<path fill="#FCBE9F" d="M441.227,171.706c4.111,1.077,8.371-1.199,9.51-5.083c1.138-3.884-1.271-7.905-5.381-8.981"/>
<path d="M447.863,161.665c0,0-3.082-1.893-5.395,1.455"/>
<line fill="none" x1="443.579" y1="162.125" x2="445.165" y2="165.051"/>
<path d="M429.906,155.646c-0.666-0.123-1.362,0.545-1.559,1.492c-0.195,0.947,0.186,1.814,0.851,1.938
	c0.663,0.123,1.362-0.545,1.558-1.493C430.952,156.635,430.571,155.769,429.906,155.646z"/>
<path d="M433.785,153.256l-2.833-1.445c-0.521-0.268-1.178-0.083-1.457,0.412l0,0c-0.286,0.494-0.09,1.112,0.436,1.38l2.833,1.444
	c0.523,0.268,1.178,0.083,1.46-0.412l0,0C434.504,154.142,434.311,153.523,433.785,153.256z"/>
<line fill="none" x1="496.202" y1="223.098" x2="488.105" y2="252.034"/>
</svg>
