<?xml version="1.0" encoding="utf-8"?>
<!-- Generator: Adobe Illustrator 16.0.0, SVG Export Plug-In . SVG Version: 6.00 Build 0)  -->
<!DOCTYPE svg PUBLIC "-//W3C//DTD SVG 1.1//EN" "http://www.w3.org/Graphics/SVG/1.1/DTD/svg11.dtd">
<svg version="1.1" xmlns="http://www.w3.org/2000/svg" xmlns:xlink="http://www.w3.org/1999/xlink" x="0px" y="0px" width="500px"
	 height="500px" viewBox="0 0 500 500" enable-background="new 0 0 500 500" xml:space="preserve">
<g id="Background_Simple">
</g>
<g id="Window">
</g>
<g id="Plant">
</g>
<g id="Device">
	<g>
		<path fill="#1AB394" d="M228.196,112.028l-0.759-0.609l-0.758,0.609c0,0-38.686,23.527-56.132,32.452
			c0,0,8.344,50.302,14.412,73.018c6.068,22.717,29.583,34.886,42.478,43c12.896-8.113,36.41-20.282,42.478-43
			c6.069-22.716,14.412-73.018,14.412-73.018C266.881,135.556,228.196,112.028,228.196,112.028z"/>
	</g>
	<g>
		<path fill="#FFFFFF" d="M223.472,209.284l-25.652-23.519c-2.466-2.261-2.752-6.232-0.637-8.87
			c2.112-2.638,5.826-2.944,8.293-0.682l16.825,15.425l28.782-35.082c2.143-2.612,5.856-2.872,8.3-0.579
			c2.441,2.292,2.684,6.266,0.542,8.878L223.472,209.284z"/>
	</g>
</g>
<g id="Text">
	<g>
		<path fill="#263238" d="M172.72,94.952l-2.458-18.427h1.976l1.613,13.035l1.507-13.035h2.021l-2.458,18.427H172.72z"/>
		<path fill="#263238" d="M178.63,94.952V76.525h5.126v2.365h-2.895v5.301h2.276v2.343h-2.276v6.097h2.926v2.321H178.63z"/>
		<path fill="#263238" d="M185.083,94.952V76.525h2.926c0.824,0,1.52,0.147,2.087,0.444c0.569,0.294,1,0.799,1.297,1.511
			c0.297,0.714,0.445,1.684,0.445,2.912c0,0.744-0.045,1.411-0.136,2.002c-0.091,0.591-0.244,1.096-0.46,1.514
			c-0.216,0.416-0.516,0.738-0.897,0.965l1.704,9.078h-2.231l-1.478-8.441h-1.025v8.441H185.083z M187.314,84.396h0.694
			c0.432,0,0.776-0.094,1.032-0.284c0.257-0.19,0.441-0.493,0.551-0.91c0.111-0.417,0.167-0.952,0.167-1.603
			c0-0.925-0.113-1.62-0.34-2.083c-0.226-0.462-0.656-0.694-1.289-0.694h-0.814V84.396z"/>
		<path fill="#263238" d="M193.572,94.952V76.525h2.202v18.427H193.572z"/>
		<path fill="#263238" d="M197.658,94.952V76.525h5.021v2.32h-2.79v5.369h2.276v2.344h-2.276v8.395H197.658z"/>
		<path fill="#263238" d="M203.9,94.952V76.525h2.202v18.427H203.9z"/>
		<path fill="#263238" d="M211.273,95.202c-0.895,0-1.596-0.265-2.104-0.796c-0.507-0.53-0.862-1.254-1.063-2.173
			c-0.201-0.917-0.302-1.975-0.302-3.173v-6.575c0-1.259,0.101-2.351,0.302-3.276c0.201-0.924,0.555-1.638,1.063-2.138
			c0.508-0.501,1.209-0.751,2.104-0.751c0.845,0,1.505,0.216,1.983,0.649c0.477,0.431,0.816,1.049,1.017,1.853
			c0.202,0.804,0.301,1.736,0.301,2.799v1.546h-2.141v-1.593c0-0.515-0.018-0.985-0.053-1.411c-0.035-0.424-0.13-0.762-0.286-1.012
			c-0.156-0.25-0.425-0.375-0.808-0.375c-0.382,0-0.66,0.132-0.836,0.397c-0.177,0.266-0.29,0.622-0.34,1.07
			c-0.05,0.447-0.076,0.952-0.076,1.513v8.009c0,0.667,0.035,1.216,0.106,1.648c0.07,0.432,0.198,0.759,0.384,0.978
			c0.186,0.22,0.439,0.33,0.761,0.33c0.373,0,0.637-0.132,0.792-0.398c0.156-0.265,0.253-0.618,0.294-1.058
			c0.04-0.44,0.06-0.933,0.06-1.479v-1.661h2.141v1.479c0,1.092-0.095,2.059-0.287,2.902c-0.19,0.841-0.524,1.5-1.002,1.978
			C212.81,94.963,212.138,95.202,211.273,95.202z"/>
		<path fill="#263238" d="M215.51,94.952l2.443-18.427h2.382l2.443,18.427h-2.066l-0.482-4.255h-2.126l-0.497,4.255H215.51z
			 M218.33,88.56h1.658l-0.829-7.736L218.33,88.56z"/>
		<path fill="#263238" d="M224.647,94.952V79.004h-1.945v-2.479h6.091v2.479h-1.915v15.948H224.647z"/>
		<path fill="#263238" d="M229.969,94.952V76.525h2.202v18.427H229.969z"/>
		<path fill="#263238" d="M237.374,95.202c-0.865,0-1.553-0.243-2.066-0.728s-0.88-1.183-1.101-2.093
			c-0.221-0.909-0.332-1.987-0.332-3.23v-6.894c0-1.243,0.111-2.31,0.332-3.196c0.221-0.888,0.588-1.566,1.101-2.037
			c0.513-0.47,1.201-0.705,2.066-0.705c0.885,0,1.58,0.235,2.087,0.705c0.508,0.471,0.875,1.149,1.101,2.037
			c0.227,0.886,0.34,1.953,0.34,3.196v6.917c0,1.227-0.113,2.292-0.34,3.195c-0.227,0.903-0.593,1.601-1.101,2.094
			C238.954,94.956,238.258,95.202,237.374,95.202z M237.374,92.723c0.372,0,0.646-0.122,0.821-0.364
			c0.175-0.243,0.294-0.576,0.354-1.001c0.06-0.424,0.091-0.887,0.091-1.387v-8.486c0-0.516-0.031-0.979-0.091-1.388
			c-0.06-0.41-0.179-0.732-0.354-0.967c-0.176-0.235-0.45-0.352-0.821-0.352c-0.352,0-0.618,0.117-0.8,0.352
			c-0.181,0.235-0.301,0.557-0.361,0.967c-0.061,0.409-0.09,0.872-0.09,1.388v8.486c0,0.5,0.027,0.963,0.083,1.387
			c0.056,0.426,0.173,0.759,0.354,1.001S237.011,92.723,237.374,92.723z"/>
		<path fill="#263238" d="M242.545,94.952V76.525h1.553l2.971,10.51v-10.51h1.839v18.427h-1.478l-2.986-11.011v11.011H242.545z"/>
		<path fill="#263238" d="M257.713,95.202c-0.895,0-1.596-0.265-2.104-0.796c-0.507-0.53-0.862-1.254-1.062-2.173
			c-0.202-0.917-0.303-1.975-0.303-3.173v-6.575c0-1.259,0.101-2.351,0.303-3.276c0.2-0.924,0.555-1.638,1.062-2.138
			c0.508-0.501,1.209-0.751,2.104-0.751c0.845,0,1.505,0.216,1.983,0.649c0.477,0.431,0.816,1.049,1.017,1.853
			c0.202,0.804,0.301,1.736,0.301,2.799v1.546h-2.141v-1.593c0-0.515-0.018-0.985-0.053-1.411c-0.035-0.424-0.13-0.762-0.286-1.012
			c-0.156-0.25-0.425-0.375-0.808-0.375c-0.381,0-0.66,0.132-0.836,0.397c-0.177,0.266-0.29,0.622-0.34,1.07
			c-0.05,0.447-0.076,0.952-0.076,1.513v8.009c0,0.667,0.035,1.216,0.106,1.648c0.07,0.432,0.198,0.759,0.384,0.978
			c0.186,0.22,0.439,0.33,0.761,0.33c0.373,0,0.637-0.132,0.792-0.398c0.156-0.265,0.253-0.618,0.294-1.058
			c0.04-0.44,0.06-0.933,0.06-1.479v-1.661h2.141v1.479c0,1.092-0.095,2.059-0.287,2.902c-0.19,0.841-0.524,1.5-1.002,1.978
			C259.249,94.963,258.577,95.202,257.713,95.202z"/>
		<path fill="#263238" d="M265.886,95.202c-0.865,0-1.553-0.243-2.066-0.728s-0.88-1.183-1.101-2.093
			c-0.221-0.909-0.332-1.987-0.332-3.23v-6.894c0-1.243,0.111-2.31,0.332-3.196c0.221-0.888,0.588-1.566,1.101-2.037
			c0.513-0.47,1.201-0.705,2.066-0.705c0.885,0,1.58,0.235,2.087,0.705c0.508,0.471,0.875,1.149,1.101,2.037
			c0.227,0.886,0.34,1.953,0.34,3.196v6.917c0,1.227-0.113,2.292-0.34,3.195c-0.227,0.903-0.593,1.601-1.101,2.094
			C267.466,94.956,266.771,95.202,265.886,95.202z M265.886,92.723c0.372,0,0.646-0.122,0.821-0.364s0.294-0.576,0.354-1.001
			c0.06-0.424,0.091-0.887,0.091-1.387v-8.486c0-0.516-0.031-0.979-0.091-1.388c-0.06-0.41-0.179-0.732-0.354-0.967
			c-0.176-0.235-0.45-0.352-0.821-0.352c-0.352,0-0.618,0.117-0.799,0.352c-0.182,0.235-0.302,0.557-0.361,0.967
			c-0.062,0.409-0.091,0.872-0.091,1.388v8.486c0,0.5,0.027,0.963,0.083,1.387c0.056,0.426,0.173,0.759,0.354,1.001
			S265.524,92.723,265.886,92.723z"/>
		<path fill="#263238" d="M271.057,94.952V76.525h2.88c0.994,0,1.771,0.204,2.329,0.613c0.559,0.41,0.955,1.039,1.191,1.889
			c0.236,0.849,0.354,1.927,0.354,3.23v6.734c0,1.336-0.119,2.446-0.354,3.333c-0.236,0.887-0.628,1.547-1.175,1.979
			c-0.548,0.433-1.299,0.649-2.255,0.649H271.057z M273.288,92.61h0.679c0.513,0,0.88-0.138,1.101-0.411
			c0.221-0.272,0.357-0.671,0.407-1.194c0.051-0.523,0.076-1.164,0.076-1.922V82.03c0-0.744-0.035-1.342-0.105-1.798
			c-0.07-0.455-0.216-0.788-0.437-1c-0.222-0.213-0.579-0.319-1.07-0.319h-0.649V92.61z"/>
		<path fill="#263238" d="M279.456,94.952V76.525h5.126v2.365h-2.895v5.301h2.277v2.343h-2.277v6.097h2.926v2.321H279.456z"/>
	</g>
</g>
<g id="Arrow">
	
		<line fill="none" stroke="#263238" stroke-linecap="round" stroke-linejoin="round" stroke-miterlimit="10" stroke-dasharray="5" x1="401.793" y1="23.43" x2="401.793" y2="72.655"/>
</g>
<g id="Email">
	<g>
		
			<rect x="360.932" y="84.898" transform="matrix(0.9795 0.2016 -0.2016 0.9795 31.9869 -79.4745)" fill="#263238" width="90.602" height="64.857"/>
		
			<rect x="356.337" y="78.991" transform="matrix(0.9795 0.2016 -0.2016 0.9795 30.702 -78.6696)" fill="#FFFFFF" stroke="#263238" stroke-miterlimit="10" width="90.602" height="64.857"/>
		<polyline fill="none" stroke="#263238" stroke-linecap="round" stroke-linejoin="round" stroke-miterlimit="10" points="
			363.804,70.525 401.639,111.419 452.546,88.788 		"/>
	</g>
</g>
<g id="Character">
</g>
</svg>
