<?xml version="1.0" encoding="utf-8"?>
<!-- Generator: Adobe Illustrator 16.0.0, SVG Export Plug-In . SVG Version: 6.00 Build 0)  -->
<!DOCTYPE svg PUBLIC "-//W3C//DTD SVG 1.1//EN" "http://www.w3.org/Graphics/SVG/1.1/DTD/svg11.dtd">
<svg version="1.1" xmlns="http://www.w3.org/2000/svg" xmlns:xlink="http://www.w3.org/1999/xlink" x="0px" y="0px" width="500px"
	 height="500px" viewBox="0 0 500 500" enable-background="new 0 0 500 500" xml:space="preserve">
<g id="Background_Complete">
</g>
<g id="Background_Simple" display="none">
	<g display="inline">
		<path fill="#EBEBEB" d="M421.891,99.458l-2.209-3.64c-18.619-30.684-52.284-49.18-87.778-46.936
			c-4.563,0.289-9.105,0.906-13.588,1.866c-32.271,6.908-60.351,31.312-71.99,62.566c-6.845,18.381-8.758,39.544-21.748,54.134
			c-16.906,18.989-45.607,19.584-70.842,18.798c-25.234-0.787-53.955-0.116-70.778,18.947
			c-10.536,11.938-13.885,28.917-13.035,44.905c2.25,42.331,31.746,80.181,69.258,98.994s81.679,20.498,122.733,12.223
			c57.514-11.594,112.208-43.433,145.084-92.608C439.875,219.531,448.195,152.534,421.891,99.458z"/>
	</g>
	<g display="inline">
		<circle fill="#EBEBEB" cx="38.746" cy="212.938" r="16.637"/>
	</g>
	<g display="inline">
		<circle fill="#EBEBEB" cx="438.321" cy="58.047" r="16.638"/>
	</g>
</g>
<g id="Padlock">
	<g>
		<path fill="#FF725E" d="M202.901,125.214c-18.418,7.542-27.267,28.663-19.726,47.081l22.401,54.707l10.051-4.116l-22.401-54.707
			c-5.273-12.876,0.914-27.642,13.79-32.915c12.876-5.272,27.642,0.914,32.914,13.791l10.051-4.116
			C242.441,126.521,221.319,117.672,202.901,125.214z"/>
	</g>
	<path fill="#1AB394" d="M202.901,125.214c-18.418,7.542-27.267,28.663-19.726,47.081l22.401,54.707l10.051-4.116l-22.401-54.707
		c-5.273-12.876,0.914-27.642,13.79-32.915c12.876-5.272,27.642,0.914,32.914,13.791l10.051-4.116
		C242.441,126.521,221.319,117.672,202.901,125.214z"/>
	<g>
		<g>
			<g>
				<path fill="#1AB394" d="M292.305,230.519l-79.276,32.462c-2.97,1.217-6.363-0.205-7.58-3.176l-19.248-47.006
					c-1.216-2.97,0.206-6.363,3.175-7.58l79.277-32.462c2.97-1.216,6.363,0.206,7.579,3.176l19.248,47.006
					C296.697,225.91,295.275,229.303,292.305,230.519z"/>
			</g>
		</g>
	</g>
	<g opacity="0.5">
		<g>
			<path d="M245.285,207.263c-1.701-4.156-6.45-6.146-10.606-4.444c-4.156,1.702-6.146,6.451-4.444,10.607
				c1.409,3.439,4.904,5.357,8.423,4.965l4.607,11.25l4.105-1.681l-4.607-11.251C245.546,214.521,246.693,210.702,245.285,207.263z"
				/>
		</g>
	</g>
	<g>
		<g>
			<g>
				<g>
					
						<ellipse transform="matrix(0.3789 0.9254 -0.9254 0.3789 343.6891 -39.6701)" fill="#FAFAFA" cx="201.4" cy="236.225" rx="23.247" ry="0.404"/>
				</g>
			</g>
		</g>
	</g>
	<g>
		<g>
			<g>
				<g>
					<path fill="#FAFAFA" d="M235.816,222.404c-0.009,0.047-0.4,0.027-1.087-0.14c-0.687-0.163-1.659-0.524-2.749-1.182
						c-2.157-1.266-4.81-4.084-5.455-8.035c-0.601-3.96,1.058-7.457,2.722-9.324c0.835-0.961,1.649-1.604,2.252-1.97
						c0.603-0.369,0.969-0.508,0.992-0.467c0.089,0.128-1.314,0.863-2.801,2.796c-1.477,1.872-2.925,5.182-2.368,8.838
						c0.593,3.649,2.988,6.354,4.968,7.682C234.301,221.987,235.862,222.254,235.816,222.404z"/>
				</g>
			</g>
		</g>
	</g>
</g>
<g id="Device">
</g>
<g id="Character">
	<g>
		<g>
			<g>
				<polygon fill="#FFBE9D" points="446.313,458.771 427.44,415.24 405.79,429.136 428.752,468.93 440.263,463.77 				"/>
			</g>
		</g>
	</g>
	<g>
		<g>
			<g>
				<g>
					<g>
						<g>
							<g>
								<g>
									<g>
										<g>
											<g>
												<g>
													<g>
														<path fill="#1AB394" d="M445.886,456.344l0.627,1.231c0,0,25.15-2.144,27.374,1.713l-41.64,20.724l-6.33-14.138
															C433.536,465.661,440.175,462.758,445.886,456.344z"/>
													</g>
												</g>
											</g>
										</g>
									</g>
								</g>
							</g>
						</g>
					</g>
				</g>
			</g>
		</g>
	</g>
	<g opacity="0.6">
		<g>
			<g>
				<g>
					<g>
						<g>
							<g>
								<g>
									<g>
										<g>
											<g>
												<g>
													<g>
														<g>
															<path fill="#FFFFFF" d="M432.339,468.206c-0.696,0.622-0.803,1.805-0.211,2.525c0.593,0.722,1.795,0.84,2.502,0.23
																c0.707-0.608,0.878-2.025,0.208-2.676c-0.669-0.65-2.088-0.711-2.628,0.049"/>
														</g>
													</g>
												</g>
											</g>
										</g>
									</g>
								</g>
							</g>
						</g>
					</g>
				</g>
			</g>
		</g>
	</g>
	<g opacity="0.6">
		<g>
			<g>
				<g>
					<g>
						<g>
							<g>
								<g>
									<g>
										<g>
											<g>
												<g>
													<g>
														<path fill="#FFFFFF" d="M432.248,480.012l-1.522-3.4l40.467-18.617c0,0,2.255-0.116,2.695,1.294L432.248,480.012z"/>
													</g>
												</g>
											</g>
										</g>
									</g>
								</g>
							</g>
						</g>
					</g>
				</g>
			</g>
		</g>
	</g>
	<g>
		<g>
			<g>
				<g>
					<g>
						<g>
							<g>
								<g>
									<g>
										<g>
											<g>
												<g>
													<g>
														<g>
															<path fill="#263238" d="M446.716,457.62c0.095,0.207-0.876,0.805-1.551,1.956c-0.705,1.135-0.782,2.271-1.01,2.284
																c-0.207,0.054-0.509-1.313,0.333-2.692C445.318,457.78,446.667,457.411,446.716,457.62z"/>
														</g>
													</g>
												</g>
											</g>
										</g>
									</g>
								</g>
							</g>
						</g>
					</g>
				</g>
			</g>
		</g>
	</g>
	<g>
		<g>
			<g>
				<g>
					<g>
						<g>
							<g>
								<g>
									<g>
										<g>
											<g>
												<g>
													<g>
														<g>
															<path fill="#263238" d="M451.983,457.252c0.145,0.174-0.563,0.958-0.826,2.161c-0.298,1.196-0.01,2.213-0.217,2.305
																c-0.175,0.127-0.908-0.994-0.553-2.484C450.728,457.741,451.882,457.06,451.983,457.252z"/>
														</g>
													</g>
												</g>
											</g>
										</g>
									</g>
								</g>
							</g>
						</g>
					</g>
				</g>
			</g>
		</g>
	</g>
	<g>
		<g>
			<g>
				<g>
					<g>
						<g>
							<g>
								<g>
									<g>
										<g>
											<g>
												<g>
													<g>
														<g>
															<path fill="#263238" d="M457.065,461.245c-0.163,0.136-0.952-0.739-0.983-2.113
																c-0.042-1.373,0.698-2.289,0.868-2.163c0.198,0.11-0.122,1.015-0.078,2.142
																C456.888,460.238,457.257,461.125,457.065,461.245z"/>
														</g>
													</g>
												</g>
											</g>
										</g>
									</g>
								</g>
							</g>
						</g>
					</g>
				</g>
			</g>
		</g>
	</g>
	<g>
		<g>
			<g>
				<polygon fill="#FFBE9D" points="410.821,466.326 411.542,418.884 386.09,422.636 390.634,468.355 403.25,468.391 				"/>
			</g>
		</g>
	</g>
	<g>
		<g>
			<g>
				<g>
					<g>
						<g>
							<g>
								<g>
									<g>
										<g>
											<g>
												<g>
													<path fill="#1AB394" d="M411.431,463.938l0.063,1.381c0,0,23.804,8.4,24.242,12.83l-46.479,1.744l0.052-15.49
														C396.34,467.344,403.586,467.433,411.431,463.938z"/>
												</g>
											</g>
										</g>
									</g>
								</g>
							</g>
						</g>
					</g>
				</g>
			</g>
		</g>
	</g>
	<g opacity="0.6">
		<g>
			<g>
				<g>
					<g>
						<g>
							<g>
								<g>
									<g>
										<g>
											<g>
												<g>
													<g>
														<g>
															<path fill="#FFFFFF" d="M394.202,469.171c-0.891,0.279-1.474,1.314-1.231,2.215c0.243,0.901,1.29,1.504,2.186,1.24
																c0.895-0.265,1.634-1.484,1.291-2.353c-0.342-0.868-1.61-1.509-2.415-1.038"/>
														</g>
													</g>
												</g>
											</g>
										</g>
									</g>
								</g>
							</g>
						</g>
					</g>
				</g>
			</g>
		</g>
	</g>
	<g opacity="0.6">
		<g>
			<g>
				<g>
					<g>
						<g>
							<g>
								<g>
									<g>
										<g>
											<g>
												<g>
													<g>
														<path fill="#FFFFFF" d="M389.258,479.893l0.013-3.726l44.542-0.308c0,0,2.104,0.822,1.924,2.289L389.258,479.893z"/>
													</g>
												</g>
											</g>
										</g>
									</g>
								</g>
							</g>
						</g>
					</g>
				</g>
			</g>
		</g>
	</g>
	<g>
		<g>
			<g>
				<g>
					<g>
						<g>
							<g>
								<g>
									<g>
										<g>
											<g>
												<g>
													<g>
														<g>
															<path fill="#263238" d="M411.663,465.443c0.001,0.227-1.13,0.372-2.219,1.145c-1.109,0.743-1.648,1.747-1.86,1.665
																c-0.211-0.036,0.076-1.405,1.411-2.316C410.322,465.013,411.705,465.232,411.663,465.443z"/>
														</g>
													</g>
												</g>
											</g>
										</g>
									</g>
								</g>
							</g>
						</g>
					</g>
				</g>
			</g>
		</g>
	</g>
	<g>
		<g>
			<g>
				<g>
					<g>
						<g>
							<g>
								<g>
									<g>
										<g>
											<g>
												<g>
													<g>
														<g>
															<path fill="#263238" d="M416.614,467.276c0.06,0.218-0.908,0.641-1.644,1.63c-0.764,0.967-0.919,2.012-1.146,2.011
																c-0.212,0.044-0.419-1.279,0.519-2.492C415.269,467.205,416.601,467.059,416.614,467.276z"/>
														</g>
													</g>
												</g>
											</g>
										</g>
									</g>
								</g>
							</g>
						</g>
					</g>
				</g>
			</g>
		</g>
	</g>
	<g>
		<g>
			<g>
				<g>
					<g>
						<g>
							<g>
								<g>
									<g>
										<g>
											<g>
												<g>
													<g>
														<g>
															<path fill="#263238" d="M419.601,473.006c-0.204,0.057-0.563-1.066-0.026-2.33c0.527-1.27,1.579-1.8,1.683-1.614
																c0.135,0.182-0.529,0.874-0.954,1.92C419.855,472.016,419.826,472.975,419.601,473.006z"/>
														</g>
													</g>
												</g>
											</g>
										</g>
									</g>
								</g>
							</g>
						</g>
					</g>
				</g>
			</g>
		</g>
	</g>
	<g>
		<g>
			<path fill="#263238" d="M392.507,272.886l-0.946-37.355l-36.361,1.914l-1.182,4.419c0,0-3.279,11.312-4.759,20.798
				c-2.44,15.646-2.152,29.892,3.981,46.614c6.135,16.723,15.776,48.54,15.776,48.54l36.075,99.63l42.003-13.809L392.507,272.886z"
				/>
		</g>
		<g>
			<g>
				<path fill="#263238" d="M414.496,234.324l3.178,10.342c4.659,2.961,12.184,17.705,12.876,23.724
					c0.692,6.021,2.042,26.631,0.627,50.789c-1.163,19.868-11.005,136.175-11.005,136.175l-39.742,2.092l4.142-188.061l1.746-33.578
					L414.496,234.324z"/>
			</g>
		</g>
		<g>
			<g>
				<g>
					<path fill="#455A64" d="M346.404,266.098c-0.008,0.032,0.476,0.198,1.374,0.408c0.898,0.212,2.223,0.432,3.876,0.522
						c3.284,0.198,7.991-0.327,12.558-2.591c4.567-2.264,7.837-5.691,9.668-8.426c0.929-1.37,1.556-2.557,1.931-3.4
						c0.377-0.842,0.537-1.327,0.507-1.34c-0.102-0.051-0.845,1.866-2.76,4.514c-1.886,2.637-5.129,5.941-9.593,8.154
						c-4.463,2.211-9.056,2.791-12.297,2.695C348.401,266.556,346.425,265.987,346.404,266.098z"/>
				</g>
			</g>
		</g>
		<g>
			<g>
				<g>
					<path fill="#455A64" d="M412.979,246.125c-0.036,0.013,0.046,0.319,0.227,0.863c0.174,0.546,0.485,1.317,0.92,2.246
						c0.864,1.859,2.336,4.319,4.41,6.68c2.083,2.355,4.339,4.124,6.074,5.215c0.867,0.548,1.593,0.953,2.113,1.194
						c0.518,0.247,0.811,0.367,0.828,0.333c0.044-0.083-1.064-0.689-2.722-1.854c-1.658-1.161-3.831-2.943-5.877-5.256
						c-2.037-2.319-3.532-4.698-4.476-6.489C413.529,247.267,413.067,246.091,412.979,246.125z"/>
				</g>
			</g>
		</g>
		<g>
			<g>
				<path fill="#455A64" d="M394.273,277.875c0,0,0.099,0.26,0.267,0.774c0.169,0.53,0.412,1.293,0.73,2.288
					c0.637,2.031,1.566,4.998,2.763,8.816c2.38,7.677,5.817,18.759,10.063,32.45c8.626,27.358,19.573,65.467,34.252,106.713
					c1.687,4.938,3.354,9.82,4.999,14.634l0.087,0.255l-0.255,0.084c-14.753,4.843-28.87,9.478-42.009,13.79l-0.229,0.075
					l-0.081-0.226c-9.838-27.284-18.219-50.53-24.146-66.971c-2.941-8.21-5.271-14.718-6.874-19.19
					c-0.786-2.222-1.393-3.935-1.808-5.108c-0.198-0.571-0.349-1.009-0.456-1.319c-0.101-0.297-0.142-0.451-0.142-0.451
					s0.067,0.146,0.181,0.438c0.116,0.307,0.279,0.739,0.494,1.305c0.433,1.169,1.063,2.872,1.882,5.082
					c1.633,4.462,4.008,10.953,7.006,19.143c5.972,16.424,14.416,39.647,24.328,66.905l-0.31-0.15
					c13.136-4.324,27.248-8.971,41.997-13.826l-0.168,0.338c-1.646-4.813-3.314-9.697-5.003-14.636
					c-14.681-41.253-25.571-79.381-34.105-106.771c-4.178-13.713-7.56-24.813-9.901-32.502c-1.155-3.83-2.053-6.808-2.667-8.845
					c-0.296-1.003-0.522-1.771-0.681-2.305C394.336,278.146,394.273,277.875,394.273,277.875z"/>
			</g>
		</g>
	</g>
	<g>
		<g>
			<path fill="#455A64" d="M430.007,169.455c0,0-1.902-10.639-7.347-15.722c-5.446-5.083-28.16-10.849-28.16-10.849
				s0.27,7.884-4.806,9.999c-5.386,2.244-10.767,1.486-15.03-2.964c-4.123-4.303-5.174-9.886-5.174-9.886
				s-26.918,3.928-30.753,11.225c-3.835,7.297-7.833,34.99-7.833,34.99l24.39,3.85l-0.794,47.384l64.097-3.374l-3.586-44.239
				l17.58,1.573L430.007,169.455z"/>
		</g>
	</g>
	<g>
		<g>
			<g>
				<path fill="#263238" d="M360.166,191.405c0.039-0.003,0.048-0.383,0.03-1.069c-0.017-0.686-0.06-1.678-0.124-2.901
					c-0.13-2.448-0.347-5.826-0.62-9.555c-0.274-3.73-0.553-7.105-0.783-9.547c-0.114-1.221-0.217-2.208-0.301-2.89
					c-0.083-0.682-0.147-1.058-0.186-1.056c-0.039,0.002-0.047,0.382-0.03,1.067c0.017,0.686,0.06,1.677,0.124,2.9
					c0.13,2.448,0.347,5.828,0.62,9.56c0.274,3.73,0.554,7.106,0.783,9.548c0.115,1.221,0.218,2.208,0.301,2.889
					S360.127,191.408,360.166,191.405z"/>
			</g>
		</g>
	</g>
	<g>
		<g>
			<g>
				
					<ellipse transform="matrix(0.2253 -0.9743 0.9743 0.2253 148.2309 545.8241)" fill="#263238" cx="417.332" cy="179.704" rx="11.221" ry="0.278"/>
			</g>
		</g>
	</g>
	<g>
		<g>
			<g>
				<path fill="#263238" d="M341.343,149.417c-0.014,0.1,1.16,0.252,2.956,0.829c1.795,0.569,4.189,1.665,6.459,3.43
					c2.262,1.775,3.903,3.834,4.891,5.438c0.994,1.604,1.425,2.706,1.519,2.668c0.036-0.014-0.045-0.298-0.225-0.804
					c-0.169-0.51-0.492-1.221-0.956-2.063c-0.918-1.688-2.561-3.851-4.887-5.676c-2.332-1.815-4.828-2.885-6.688-3.368
					c-0.93-0.246-1.697-0.387-2.233-0.429C341.643,149.389,341.348,149.378,341.343,149.417z"/>
			</g>
		</g>
	</g>
	<g>
		<g>
			<g>
				
					<ellipse transform="matrix(0.1951 -0.9808 0.9808 0.1951 183.8073 542.5961)" fill="#263238" cx="422.479" cy="159.314" rx="3.507" ry="0.278"/>
			</g>
		</g>
	</g>
	<g>
		<path fill="#FFBE9D" d="M335.244,186.933c0,0,9.156,36.31,10.148,39.405c0.991,3.096,2.771,11.477,11.612,12.764
			c11.937,1.738,58.237-2.351,58.237-2.351l-9.333-10.617l-41.186-9.245l-6.952-26.402L335.244,186.933z"/>
	</g>
	<g>
		<g>
			<g>
				<path fill="#EB996E" d="M406.348,219.902c-0.033-0.009-0.155,0.294-0.303,0.864c-0.147,0.569-0.293,1.415-0.336,2.471
					c-0.101,2.094,0.352,5.124,2.078,7.904c0.853,1.362,1.796,2.596,2.85,3.54c1.044,0.953,2.191,1.574,3.206,1.899
					c1.017,0.334,1.881,0.403,2.469,0.422c0.59-0.006,0.913-0.042,0.912-0.078c0.012-0.12-1.325-0.008-3.249-0.714
					c-0.953-0.359-2.013-0.978-2.991-1.907c-0.985-0.919-1.89-2.124-2.725-3.457c-1.654-2.663-2.155-5.563-2.157-7.604
					C406.087,221.18,406.449,219.923,406.348,219.902z"/>
			</g>
		</g>
	</g>
	<g>
		<g>
			<path fill="#1AB394" d="M359.878,182.566c-0.007,0.036-0.397-0.003-1.097-0.106c-0.815-0.119-1.802-0.263-2.96-0.433
				c-2.498-0.361-5.962-0.769-9.79-1.265c-3.829-0.497-7.284-1.097-9.748-1.694c-1.232-0.296-2.223-0.565-2.896-0.786
				c-0.676-0.215-1.043-0.351-1.033-0.386c0.023-0.083,1.536,0.312,4.01,0.804c2.472,0.5,5.915,1.038,9.738,1.534
				c3.821,0.495,7.289,0.963,9.78,1.421c1.245,0.227,2.25,0.431,2.938,0.601C359.509,182.421,359.886,182.53,359.878,182.566z"/>
		</g>
	</g>
	<g>
		<g>
			<path fill="#1AB394" d="M357.974,170.475c-0.002,0.037-0.34,0.054-0.948,0.052c-0.609,0-1.49-0.026-2.577-0.08
				c-2.174-0.106-5.174-0.343-8.471-0.754c-3.298-0.413-6.264-0.921-8.397-1.353c-1.066-0.215-1.927-0.406-2.517-0.556
				c-0.591-0.148-0.914-0.248-0.906-0.284c0.015-0.076,1.344,0.133,3.489,0.468c2.146,0.336,5.11,0.784,8.397,1.195
				c3.285,0.41,6.27,0.705,8.432,0.907C356.638,170.273,357.978,170.398,357.974,170.475z"/>
		</g>
	</g>
	<g>
		<g>
			<path fill="#1AB394" d="M355.912,161.278c-0.003,0.068-1.093,0.09-2.851-0.023c-1.756-0.112-4.178-0.38-6.82-0.875
				c-2.643-0.498-4.998-1.126-6.675-1.659c-1.679-0.532-2.687-0.947-2.665-1.012c0.024-0.075,1.072,0.213,2.769,0.649
				c1.695,0.438,4.046,1.003,6.67,1.498c2.623,0.491,5.019,0.816,6.757,1.023C354.835,161.087,355.916,161.199,355.912,161.278z"/>
		</g>
	</g>
	<g>
		<g>
			<path fill="#1AB394" d="M373.027,148.167c0.017,0.069-1.209,0.442-3.213,0.956c-2.005,0.514-4.789,1.16-7.885,1.779
				c-3.097,0.619-5.916,1.093-7.964,1.39c-2.048,0.297-3.322,0.424-3.333,0.353c-0.012-0.074,1.241-0.333,3.27-0.725
				c2.181-0.424,4.907-0.955,7.923-1.541c3.008-0.618,5.729-1.177,7.904-1.624C371.752,148.336,373.008,148.093,373.027,148.167z"/>
		</g>
	</g>
	<g>
		<path fill="#1AB394" d="M422.695,158.97c-0.016,0.034-0.424-0.111-1.147-0.401c-0.825-0.339-1.846-0.759-3.054-1.255
			c-2.574-1.068-6.134-2.532-10.093-4.079c-3.96-1.546-7.57-2.883-10.187-3.842c-1.225-0.454-2.26-0.837-3.096-1.147
			c-0.729-0.277-1.127-0.447-1.115-0.482c0.012-0.035,0.432,0.068,1.182,0.285c0.75,0.216,1.827,0.552,3.153,0.988
			c2.651,0.869,6.289,2.152,10.257,3.701c3.967,1.55,7.51,3.072,10.049,4.23c1.27,0.579,2.29,1.062,2.988,1.411
			C422.331,158.728,422.709,158.937,422.695,158.97z"/>
	</g>
	<g>
		<g>
			<path fill="#1AB394" d="M419.861,168.318c-0.003,0.018-0.219-0.005-0.625-0.065c-0.462-0.075-1.049-0.17-1.772-0.287
				c-1.605-0.28-3.811-0.666-6.505-1.136c-5.491-0.959-13.077-2.292-21.515-3.309c-4.222-0.496-8.255-0.84-11.93-1.058
				c-3.676-0.188-6.991-0.27-9.774-0.226c-1.393-0.011-2.65,0.057-3.757,0.087c-1.105,0.023-2.057,0.078-2.834,0.129
				c-0.732,0.037-1.326,0.067-1.793,0.09c-0.41,0.015-0.627,0.014-0.629-0.004c-0.002-0.018,0.212-0.053,0.619-0.103
				c0.466-0.049,1.058-0.112,1.787-0.19c0.776-0.083,1.728-0.168,2.835-0.221c1.107-0.059,2.368-0.153,3.764-0.167
				c2.792-0.093,6.118-0.05,9.808,0.112c3.688,0.19,7.735,0.521,11.967,1.019c8.458,1.02,16.045,2.413,21.521,3.467
				c2.738,0.529,4.949,0.979,6.475,1.303c0.717,0.157,1.298,0.285,1.755,0.385C419.656,168.242,419.865,168.3,419.861,168.318z"/>
		</g>
	</g>
	<g>
		<g>
			<path fill="#1AB394" d="M393.992,184.655c-0.003,0.037-0.492,0.023-1.375-0.032c-0.884-0.053-2.159-0.163-3.732-0.326
				c-3.146-0.324-7.481-0.899-12.231-1.764c-4.751-0.868-9.011-1.861-12.069-2.668c-1.529-0.403-2.761-0.75-3.606-1.013
				c-0.846-0.259-1.308-0.419-1.298-0.455s0.49,0.057,1.352,0.255c0.963,0.224,2.185,0.508,3.644,0.847
				c3.075,0.712,7.336,1.644,12.074,2.51c4.737,0.862,9.052,1.495,12.181,1.914c1.485,0.198,2.729,0.363,3.708,0.494
				C393.512,184.536,393.996,184.619,393.992,184.655z"/>
		</g>
	</g>
	<g>
		<g>
			
				<ellipse transform="matrix(1 -0.0094 0.0094 1 -1.7289 3.8362)" fill="#1AB394" cx="405.581" cy="185.092" rx="10.166" ry="0.267"/>
		</g>
	</g>
	<g>
		<g>
			<path fill="#1AB394" d="M387.181,199.361c-0.005,0.037-0.398,0.017-1.106-0.05c-0.709-0.065-1.73-0.19-2.99-0.37
				c-2.518-0.358-5.982-0.971-9.764-1.854c-3.782-0.886-7.159-1.874-9.575-2.67c-1.208-0.397-2.179-0.738-2.843-0.995
				c-0.665-0.254-1.026-0.411-1.015-0.446s0.396,0.056,1.079,0.249c0.795,0.229,1.759,0.506,2.89,0.832
				c2.438,0.702,5.817,1.628,9.585,2.511c3.768,0.88,7.207,1.549,9.704,2.001c1.157,0.21,2.144,0.389,2.958,0.537
				C386.802,199.236,387.186,199.325,387.181,199.361z"/>
		</g>
	</g>
	<g>
		<g>
			<path fill="#1AB394" d="M410.727,200.402c-0.002,0.069-1.232,0.106-3.22,0.033c-1.986-0.072-4.729-0.271-7.74-0.661
				c-3.011-0.392-5.714-0.9-7.653-1.338c-1.94-0.438-3.121-0.787-3.105-0.854c0.018-0.076,1.227,0.143,3.179,0.485
				s4.652,0.789,7.648,1.179c2.996,0.388,5.721,0.646,7.695,0.813C409.505,200.228,410.73,200.324,410.727,200.402z"/>
		</g>
	</g>
	<g>
		<g>
			<path fill="#1AB394" d="M405.816,213.463c0.005,0.018-0.135,0.074-0.406,0.165c-0.271,0.086-0.67,0.226-1.195,0.361
				c-1.046,0.293-2.58,0.642-4.501,0.936c-3.838,0.608-9.248,0.795-15.139,0.126c-5.893-0.665-11.124-1.875-14.884-2.791
				c-1.88-0.463-3.396-0.861-4.439-1.148c-1.044-0.287-1.617-0.463-1.608-0.499s0.599,0.073,1.657,0.297
				c1.147,0.252,2.655,0.583,4.477,0.982c3.777,0.82,9.003,1.968,14.856,2.628c5.852,0.664,11.207,0.538,15.028,0.03
				c1.912-0.244,3.448-0.534,4.503-0.763C405.22,213.56,405.804,213.423,405.816,213.463z"/>
		</g>
	</g>
	<g>
		<g>
			<path fill="#1AB394" d="M428.927,175.928c-0.002,0.148-2.27,0.267-5.071,0.414c-2.811,0.147-5.099,0.027-5.097-0.12
				c0.001-0.148,2.27-0.266,5.072-0.413C426.641,175.662,428.929,175.782,428.927,175.928z"/>
		</g>
	</g>
	<g>
		<g>
			
				<ellipse transform="matrix(0.9979 0.065 -0.065 0.9979 11.5262 -27.2572)" fill="#1AB394" cx="424.815" cy="163.575" rx="2.773" ry="0.266"/>
		</g>
	</g>
	<g>
		<g>
			<path fill="#263238" d="M385.243,200.23c-0.049-0.091,1.048-0.636,2.543-1.878c0.753-0.613,1.566-1.438,2.383-2.423
				c0.792-1.005,1.571-2.183,2.224-3.509c0.633-1.336,1.07-2.679,1.365-3.924c0.265-1.251,0.404-2.402,0.416-3.373
				c0.043-1.943-0.213-3.141-0.11-3.159c0.036-0.007,0.118,0.286,0.236,0.828c0.064,0.27,0.129,0.603,0.159,0.996
				c0.036,0.392,0.105,0.839,0.092,1.336c0.037,0.994-0.066,2.181-0.313,3.475c-0.276,1.287-0.713,2.677-1.366,4.053
				c-0.671,1.367-1.488,2.573-2.324,3.589c-0.86,0.998-1.726,1.817-2.526,2.406c-0.381,0.319-0.774,0.543-1.104,0.759
				c-0.326,0.221-0.628,0.377-0.88,0.495C385.541,200.146,385.259,200.263,385.243,200.23z"/>
		</g>
	</g>
	<g opacity="0.3">
		<g>
			<path d="M393.815,190.494l-3.897,5.776c-2.596,3.266-6.342,5.599-10.417,6.491c3.583,1.25,7.805,0.455,10.687-2.015
				C393.069,198.276,394.501,194.226,393.815,190.494z"/>
		</g>
	</g>
	<g>
		<path fill="#263238" d="M405.341,130.245c3.688,0.324,7.466-0.446,10.732-2.188c-4.84-2.975-7.898-8.258-9.369-13.745
			c-1.472-5.487-3.385-14.846-3.438-20.527l-8.857,39.368c4.65,1.065,9.623,0.681,14.055-1.087
			C407.209,132.023,405.996,131.316,405.341,130.245z"/>
	</g>
	<g>
		<path fill="#263238" d="M380.061,134.964c-1.922-4.398-2.668-9.304-2.141-14.074l-17.861-6.77
			c-0.815,4.837-2.784,9.477-5.697,13.424c-1.092,1.479-2.391,3.198-1.878,4.964c0.354,1.222,1.536,2.06,2.771,2.368
			s2.53,0.178,3.795,0.046c-0.761,0.829-1.521,1.658-2.282,2.487C364.443,135.932,372.246,135.113,380.061,134.964z"/>
	</g>
	<g>
		<path fill="#263238" d="M381.569,76.163c-5.633-0.582-10.389,1.883-14.881,5.331c-4.493,3.447-7.721,8.418-9.418,13.82
			c-1.789,5.689-1.903,11.968,0.124,17.577c2.028,5.609,6.278,10.47,11.761,12.818c7.487,3.206,16.671,1.316,22.832-4.01
			c6.162-5.326,9.338-13.673,9.117-21.814c-0.152-5.609-1.864-11.246-5.295-15.686S387.162,76.613,381.569,76.163"/>
	</g>
	<g>
		<g>
			<g>
				<path fill="#263238" d="M366.966,96.142c0.675-2.185,0.204-4.543,0.378-6.823c0.385-5.021,4.131-9.271,8.639-11.513
					c4.193-2.086,9.485-2.037,14.789-0.698c3.636,0.918,7.118,2.706,9.682,5.442c3.401,3.633,4.866,8.983,3.79,13.841l-25.69-2.041
					c-2.253,2.127-4.562,4.291-7.379,5.58c-0.827,0.378-1.724,0.68-2.629,0.597c-0.905-0.083-1.815-0.636-2.086-1.503
					C366.165,98.076,366.673,97.091,366.966,96.142z"/>
			</g>
		</g>
		<g>
			<g>
				<path fill="#FFBE9D" d="M391.777,84.098l-21.909,6.161c-2.14,0.284-3.707,2.158-3.606,4.314l3.414,48.063
					c0.233,3.283,1.542,6.398,3.725,8.861l2.298,2.594c5.238,5.914,14.983,4.646,18.218-2.563c0.226-0.503,0.376-0.942,0.429-1.292
					c0.047-0.438,0.143-0.73,0.138-1.1c0.39-3.765-0.091-7.306-0.091-7.306c-0.063-4.295-0.111-6.056-0.107-6.016
					c0,0,9.018-1.744,10.58-13.611c0.776-5.901,0.226-15.529-0.48-23.392C403.749,91.736,398.821,83.163,391.777,84.098z"/>
			</g>
		</g>
		<g>
			<g>
				<g>
					<g>
						<g>
							<g>
								<g>
									<g>
										<g>
											<g>
												<g>
													<g>
														<g>
															<g>
																<g>
																	<g>
																		<g>
																			<g>
																				<path fill="#263238" d="M400.166,106.382c0.05,0.8-0.587,1.501-1.421,1.568
																					c-0.832,0.067-1.549-0.525-1.599-1.325c-0.05-0.799,0.587-1.501,1.419-1.568
																					C399.399,104.99,400.116,105.583,400.166,106.382z"/>
																			</g>
																		</g>
																	</g>
																</g>
															</g>
														</g>
													</g>
												</g>
											</g>
										</g>
									</g>
								</g>
							</g>
						</g>
					</g>
					<g>
						<g>
							<g>
								<g>
									<g>
										<g>
											<g>
												<g>
													<g>
														<g>
															<g>
																<g>
																	<g>
																		<g>
																			<g>
																				<g>
																					<path fill="#263238" d="M402.426,103.881c-0.183,0.203-1.354-0.616-2.983-0.569
																						c-1.63,0.024-2.805,0.895-2.986,0.7c-0.09-0.086,0.093-0.448,0.604-0.841c0.503-0.392,1.368-0.782,2.384-0.805
																						c1.017-0.021,1.881,0.33,2.382,0.7C402.337,103.438,402.517,103.791,402.426,103.881z"/>
																				</g>
																			</g>
																		</g>
																	</g>
																</g>
															</g>
														</g>
													</g>
												</g>
											</g>
										</g>
									</g>
								</g>
							</g>
						</g>
					</g>
				</g>
				<g>
					<g>
						<g>
							<g>
								<g>
									<g>
										<g>
											<g>
												<g>
													<g>
														<g>
															<g>
																<g>
																	<g>
																		<g>
																			<g>
																				<path fill="#263238" d="M384.728,107.195c0.05,0.8-0.587,1.501-1.421,1.568
																					c-0.832,0.067-1.549-0.525-1.599-1.325c-0.05-0.799,0.587-1.501,1.42-1.569
																					C383.962,105.802,384.678,106.396,384.728,107.195z"/>
																			</g>
																		</g>
																	</g>
																</g>
															</g>
														</g>
													</g>
												</g>
											</g>
										</g>
									</g>
								</g>
							</g>
						</g>
					</g>
					<g>
						<g>
							<g>
								<g>
									<g>
										<g>
											<g>
												<g>
													<g>
														<g>
															<g>
																<g>
																	<g>
																		<g>
																			<g>
																				<g>
																					<path fill="#263238" d="M386.405,104.612c-0.184,0.202-1.355-0.616-2.984-0.569
																						c-1.63,0.024-2.805,0.895-2.986,0.7c-0.089-0.086,0.091-0.448,0.604-0.841
																						c0.503-0.392,1.368-0.782,2.384-0.805c1.017-0.021,1.881,0.33,2.382,0.7
																						C386.314,104.168,386.495,104.521,386.405,104.612z"/>
																				</g>
																			</g>
																		</g>
																	</g>
																</g>
															</g>
														</g>
													</g>
												</g>
											</g>
										</g>
									</g>
								</g>
							</g>
						</g>
					</g>
				</g>
				<g>
					<g>
						<g>
							<g>
								<g>
									<g>
										<g>
											<g>
												<g>
													<g>
														<g>
															<g>
																<g>
																	<g>
																		<g>
																			<g>
																				<path fill="#263238" d="M392.645,116.548c-0.011-0.092,0.998-0.294,2.636-0.548
																					c0.415-0.054,0.807-0.147,0.869-0.433c0.091-0.304-0.096-0.748-0.311-1.227
																					c-0.418-0.997-0.855-2.042-1.315-3.138c-1.83-4.469-3.167-8.149-2.986-8.221
																					c0.181-0.072,1.811,3.492,3.641,7.961c0.441,1.103,0.863,2.153,1.265,3.159c0.171,0.469,0.456,0.999,0.26,1.629
																					c-0.104,0.314-0.404,0.548-0.669,0.627c-0.265,0.088-0.499,0.099-0.704,0.117
																					C393.678,116.606,392.653,116.641,392.645,116.548z"/>
																			</g>
																		</g>
																	</g>
																</g>
															</g>
														</g>
													</g>
												</g>
											</g>
										</g>
									</g>
								</g>
							</g>
						</g>
					</g>
				</g>
				<g>
					<g>
						<g>
							<g>
								<g>
									<g>
										<g>
											<g>
												<g>
													<g>
														<g>
															<g>
																<g>
																	<g>
																		<g>
																			<path fill="#EB996E" d="M394.284,135.816c0,0-7.936,0.724-15.938-3.801c0,0,4.196,8.074,15.994,6.654
																				L394.284,135.816z"/>
																		</g>
																	</g>
																</g>
															</g>
														</g>
													</g>
												</g>
											</g>
										</g>
									</g>
								</g>
							</g>
						</g>
					</g>
				</g>
				<g>
					<g>
						<g>
							<g>
								<g>
									<g>
										<g>
											<g>
												<g>
													<g>
														<g>
															<g>
																<g>
																	<g>
																		<g>
																			<path fill="#EB996E" d="M392.059,120.497c-0.607-0.76-1.646-1.158-2.663-1.021
																				c-0.706,0.095-1.412,0.455-1.826,1.043c-0.415,0.587-0.483,1.408-0.078,1.947
																				c0.457,0.607,1.38,0.726,2.152,0.484c0.773-0.242,1.429-0.772,2.052-1.299c0.172-0.146,0.348-0.298,0.453-0.495
																				c0.104-0.196,0.121-0.45-0.019-0.607"/>
																		</g>
																	</g>
																</g>
															</g>
														</g>
													</g>
												</g>
											</g>
										</g>
									</g>
								</g>
							</g>
						</g>
					</g>
				</g>
				<g>
					<g>
						<g>
							<g>
								<g>
									<g>
										<g>
											<g>
												<g>
													<g>
														<g>
															<g>
																<g>
																	<g>
																		<g>
																			<g>
																				<path fill="#263238" d="M387.875,117.804c0.265-0.023,0.314,1.748,1.863,2.963
																					c1.546,1.221,3.428,0.972,3.448,1.219c0.027,0.11-0.411,0.355-1.207,0.397c-0.78,0.048-1.928-0.173-2.875-0.917
																					c-0.945-0.746-1.37-1.763-1.45-2.488C387.568,118.241,387.753,117.797,387.875,117.804z"/>
																			</g>
																		</g>
																	</g>
																</g>
															</g>
														</g>
													</g>
												</g>
											</g>
										</g>
									</g>
								</g>
							</g>
						</g>
					</g>
				</g>
			</g>
		</g>
		<g>
			<g>
				<g>
					<g>
						<g>
							<g>
								<g>
									<g>
										<g>
											<g>
												<g>
													<g>
														<g>
															<g>
																<path fill="#263238" d="M386.546,99.674c-0.148,0.447-1.782,0.281-3.689,0.562c-1.913,0.243-3.44,0.844-3.705,0.453
																	c-0.119-0.187,0.14-0.611,0.752-1.057c0.606-0.445,1.582-0.879,2.728-1.037c1.146-0.156,2.202-0.002,2.906,0.263
																	C386.248,99.123,386.61,99.461,386.546,99.674z"/>
															</g>
														</g>
													</g>
												</g>
											</g>
										</g>
									</g>
								</g>
							</g>
						</g>
					</g>
				</g>
			</g>
		</g>
		<g>
			<g>
				<g>
					<g>
						<g>
							<g>
								<g>
									<g>
										<g>
											<g>
												<g>
													<g>
														<g>
															<g>
																<path fill="#263238" d="M401.764,96.763c-0.277,0.377-1.411,0.023-2.763,0.041
																	c-1.352-0.029-2.488,0.315-2.762-0.065c-0.12-0.185,0.05-0.561,0.541-0.925c0.483-0.362,1.3-0.67,2.229-0.667
																	c0.929,0.005,1.742,0.319,2.222,0.686C401.719,96.201,401.885,96.579,401.764,96.763z"/>
															</g>
														</g>
													</g>
												</g>
											</g>
										</g>
									</g>
								</g>
							</g>
						</g>
					</g>
				</g>
			</g>
		</g>
		<g>
			<g>
				<path fill="#263238" d="M362.669,92.978c1.86-6.916,11.313-16.792,18.474-16.618l11.708,6.317
					c-0.514,3.915-3.358,7.433-7.08,8.753c-1.987,0.705-4.406,0.984-5.525,2.771c-1.144,1.825-0.311,4.37-1.366,6.247
					c-1.464,2.601-5.783,2.677-6.844,5.467c-0.463,1.219-0.127,2.635-0.612,3.845c-0.646,1.613-4.555,3.798-6.232,3.349
					c-1.679-0.449-1.812-3.266-2.419-4.718c-1.039-2.48-0.718-3.805-0.478-5.228C362.863,99.795,361.782,96.277,362.669,92.978z"/>
			</g>
		</g>
		<g>
			<g>
				<g>
					<g>
						<g>
							<path fill="#FFBE9D" d="M370.135,114.282c-0.025-0.88-1.098-2.928-1.971-3.04c-2.33-0.3-6.508-0.002-6.391,5.892
								c0.161,8.058,8.219,6.234,8.228,6.003C370.009,122.957,370.223,117.321,370.135,114.282z"/>
						</g>
					</g>
				</g>
			</g>
		</g>
		<g>
			<g>
				<g>
					<g>
						<g>
							<g>
								<path fill="#EB996E" d="M367.479,120.134c-0.036-0.025-0.139,0.101-0.373,0.214c-0.229,0.11-0.626,0.191-1.049,0.042
									c-0.857-0.295-1.602-1.633-1.67-3.084c-0.035-0.733,0.104-1.435,0.353-2.018c0.234-0.595,0.607-1.014,1.035-1.099
									c0.424-0.107,0.732,0.144,0.836,0.368c0.112,0.223,0.064,0.385,0.107,0.398c0.022,0.02,0.17-0.138,0.099-0.47
									c-0.037-0.159-0.135-0.348-0.327-0.499c-0.196-0.153-0.482-0.228-0.78-0.189c-0.621,0.056-1.169,0.638-1.441,1.279
									c-0.308,0.644-0.481,1.433-0.442,2.256c0.085,1.623,0.946,3.125,2.118,3.439c0.569,0.136,1.039-0.044,1.279-0.239
									C367.468,120.329,367.507,120.147,367.479,120.134z"/>
							</g>
						</g>
					</g>
				</g>
			</g>
		</g>
	</g>
	<g>
		<path fill="#263238" d="M360.812,91.006L360.812,91.006c-0.138-2.516-3.385-3.954-5.871-4.363
			c-2.485-0.409-5.025,0.505-7.151,1.857c-1.243,0.791-2.476,1.881-2.67,3.342s1.306,3.089,2.648,2.482
			c-2.578,1.076-3.686,4.687-2.153,7.023c1.533,2.336,5.286,2.759,7.3,0.822c-0.537,2.348-1.904,4.496-3.804,5.977
			c4.172,0.318,8.444-1.734,10.804-5.189C362.273,99.502,362.628,94.775,360.812,91.006z"/>
	</g>
	<g>
		<g>
			<path fill="#263238" d="M346.785,125.522c0.039-0.383,1.042-0.558,2.479-0.988c1.437-0.419,3.334-1.167,5.048-2.506
				c1.714-1.341,2.897-3.001,3.651-4.294c0.765-1.292,1.177-2.222,1.558-2.167c0.344,0.041,0.604,1.136,0.196,2.857
				c-0.389,1.698-1.578,3.997-3.764,5.705c-2.185,1.707-4.701,2.306-6.443,2.274C347.742,126.382,346.741,125.865,346.785,125.522z"
				/>
		</g>
	</g>
	<g>
		<g>
			<path fill="#1AB394" d="M356.072,104.15c-0.057,0.013-0.331-0.885-0.458-2.392c-0.131-1.502-0.045-3.619,0.546-5.858
				c0.598-2.238,1.574-4.12,2.433-5.359c0.858-1.245,1.542-1.888,1.585-1.849c0.154,0.095-2.366,2.94-3.503,7.345
				C355.477,100.423,356.253,104.145,356.072,104.15z"/>
		</g>
	</g>
	<g>
		<path fill="#263238" d="M390.358,80.399c0.953,3.223,6.199,7.092,8.549,9.496c4.481,4.587,5.408,6.147,6.079,17.012
			c1.72-3.88,2.985-7.655,2.557-11.878c-0.428-4.223-2.265-8.361-5.407-11.215C398.994,80.96,394.509,79.518,390.358,80.399"/>
	</g>
	<g>
		<g>
			<g>
				<path fill="#FFBE9D" d="M442.904,174.434c0,0-5.383,22.353-7.596,32.005c-2.353,10.256-7.444,33.533-21.092,30.163
					c-10.38-2.563-8.069-15.962-8.069-15.962l8.864-30.771l8.202,0.928l7.53-18.533l8.114-8.553L442.904,174.434z"/>
			</g>
		</g>
		<g>
			<g>
				<g>
					<path fill="#EB996E" d="M409.769,221.403c0.127-0.013-0.811-1.885-0.267-4.979c0.264-1.523,0.885-3.29,1.918-5.062
						c1.03-1.78,2.451-3.56,3.963-5.42c1.52-1.855,2.925-3.698,3.977-5.513c1.069-1.803,1.847-3.528,2.415-5.002
						c0.565-1.478,0.915-2.71,1.126-3.567c0.211-0.857,0.278-1.342,0.246-1.349c-0.042-0.011-0.181,0.457-0.455,1.29
						c-0.273,0.833-0.676,2.037-1.281,3.479c-0.609,1.44-1.413,3.124-2.49,4.885c-1.061,1.774-2.448,3.569-3.969,5.427
						c-1.512,1.86-2.944,3.676-3.977,5.516c-1.037,1.837-1.64,3.673-1.861,5.255c-0.236,1.585-0.063,2.897,0.153,3.756
						c0.123,0.429,0.229,0.757,0.332,0.968C409.694,221.302,409.751,221.41,409.769,221.403z"/>
				</g>
			</g>
		</g>
	</g>
	<g>
		<path fill="#FFBE9D" d="M430.101,173.945c0-0.394,0.196-6.901,0.328-8.607c0.062-0.798,0.353-2.042,0.894-3.085
			c0.788-1.52,2.811-1.871,4.079-0.722l0.146,0.132c0,0,1.313-2.625,3.216-3.873c1.903-1.247,3.479-2.1,5.119-1.116
			c1.641,0.985,1.575,2.363,1.575,2.363s2.429-0.328,3.479,0.656c1.05,0.985,0,3.938,0,3.938s2.166-0.656,2.69,0.919
			c0.525,1.575-0.459,3.216-0.459,3.216s1.706,0.525,1.903,1.772c0.197,1.247-1.706,2.625-1.706,2.625l-5.925,4.713
			c-0.856,2.647-2.437,4.61-4.574,6.046C436.747,184.51,430.101,173.945,430.101,173.945z"/>
	</g>
	<g>
		<g>
			<path fill="#EB996E" d="M434.615,166.907c0.064,0.027,0.054,0.251-0.12,0.557c-0.169,0.302-0.527,0.674-1.043,0.873
				s-1.03,0.162-1.359,0.051c-0.334-0.111-0.491-0.27-0.462-0.333c0.056-0.138,0.813,0.104,1.63-0.216
				C434.082,167.53,434.481,166.842,434.615,166.907z"/>
		</g>
	</g>
	<g>
		<g>
			<path fill="#EB996E" d="M439.318,161.088c-0.088,0.117-0.653-0.276-0.758-1.054c-0.109-0.777,0.329-1.309,0.445-1.22
				c0.132,0.074-0.007,0.564,0.083,1.147C439.159,160.547,439.425,160.981,439.318,161.088z"/>
		</g>
	</g>
	<g>
		<g>
			<path fill="#EB996E" d="M449.232,163.619c0.048,0.049-0.425,0.608-1.315,1.377c-0.886,0.774-2.205,1.725-3.688,2.707
				c-0.731,0.492-1.508,0.988-2.357,1.095c-0.829,0.114-1.656-0.182-2.043-0.745c-0.376-0.559-0.315-1.146-0.16-1.459
				c0.164-0.326,0.367-0.401,0.38-0.378c0.031,0.032-0.107,0.161-0.186,0.451c-0.077,0.278-0.057,0.761,0.268,1.16
				c0.316,0.392,0.978,0.605,1.671,0.485c0.699-0.109,1.398-0.555,2.132-1.052c1.483-0.982,2.816-1.871,3.75-2.559
				C448.62,164.019,449.178,163.563,449.232,163.619z"/>
		</g>
	</g>
	<g>
		<g>
			<path fill="#EB996E" d="M451.131,167.795c0.061,0.134-2.471,1.42-5.654,2.872c-0.781,0.359-1.605,0.743-2.449,0.719
				c-0.828,0.01-1.604-0.46-1.837-1.092c-0.127-0.304-0.117-0.639-0.009-0.88c0.104-0.243,0.272-0.402,0.427-0.492
				c0.326-0.179,0.539-0.083,0.527-0.058c0.001,0.044-0.189,0.039-0.407,0.228c-0.215,0.179-0.431,0.605-0.193,1.05
				c0.214,0.449,0.799,0.78,1.493,0.754c0.695-0.002,1.433-0.345,2.228-0.713C448.44,168.729,451.07,167.661,451.131,167.795z"/>
		</g>
	</g>
	<g>
		<g>
			<path fill="#EB996E" d="M448.254,173.124c0.026,0.061-0.32,0.302-0.975,0.465c-0.326,0.081-0.728,0.135-1.176,0.124
				c-0.451-0.034-0.928-0.031-1.473-0.334c-0.273-0.152-0.484-0.526-0.434-0.849c0.036-0.319,0.187-0.542,0.325-0.729
				c0.286-0.358,0.579-0.624,0.847-0.827c0.539-0.402,0.938-0.53,0.971-0.47c0.04,0.067-0.282,0.308-0.722,0.754
				c-0.218,0.222-0.47,0.506-0.698,0.832c-0.227,0.335-0.31,0.668,0,0.842c0.318,0.19,0.822,0.248,1.21,0.292
				c0.405,0.037,0.775,0.024,1.086-0.004C447.838,173.159,448.225,173.049,448.254,173.124z"/>
		</g>
	</g>
	<g>
		<g>
			<g>
				<path fill="#263238" d="M442.624,174.114c0.1-2.675-1.987-4.925-4.663-5.026c-2.675-0.1-4.925,1.987-5.025,4.663
					c-0.086,2.288,1.43,4.264,3.544,4.851l-0.051,1.348l1.321,0.995l-1.388,0.775l-0.063,1.687l1.321,0.995l-1.388,0.775
					l-0.055,1.449l0.806,0.606l-0.846,0.472l-0.031,0.844l1.003,1.141l2.005-1.191l0.376-10.028
					C441.26,177.801,442.547,176.124,442.624,174.114z M437.912,170.393c0.768,0.029,1.366,0.674,1.338,1.442
					c-0.029,0.768-0.675,1.366-1.442,1.337c-0.767-0.029-1.366-0.674-1.337-1.442C436.499,170.963,437.144,170.364,437.912,170.393z
					"/>
			</g>
		</g>
		<g>
			<g>
				<g>
					<path fill="none" d="M442.624,174.114c0.1-2.675-1.987-4.925-4.663-5.026c-2.675-0.1-4.925,1.987-5.025,4.663
						c-0.086,2.288,1.43,4.264,3.544,4.851l-0.051,1.348l1.321,0.995l-1.388,0.775l-0.063,1.687l1.321,0.995l-1.388,0.775
						l-0.055,1.449l0.806,0.606l-0.846,0.472l-0.031,0.844l1.003,1.141l2.005-1.191l0.376-10.028
						C441.26,177.801,442.547,176.124,442.624,174.114z M437.912,170.393c0.768,0.029,1.366,0.674,1.338,1.442
						c-0.029,0.768-0.675,1.366-1.442,1.337c-0.767-0.029-1.366-0.674-1.337-1.442C436.499,170.963,437.144,170.364,437.912,170.393
						z"/>
				</g>
			</g>
			<g>
				<g>
					<g>
						<path fill="#263238" d="M437.912,170.393c0,0.013-0.124,0.004-0.336,0.054c-0.208,0.049-0.514,0.179-0.756,0.48
							c-0.242,0.292-0.39,0.779-0.229,1.262c0.146,0.479,0.633,0.905,1.22,0.922c0.586,0.027,1.104-0.361,1.285-0.828
							c0.196-0.47,0.086-0.967-0.135-1.276c-0.219-0.319-0.514-0.471-0.718-0.536C438.036,170.406,437.911,170.405,437.912,170.393
							c0-0.004,0.031-0.005,0.09-0.004c0.059,0,0.146,0.01,0.255,0.038c0.214,0.053,0.532,0.2,0.774,0.532
							c0.243,0.321,0.374,0.855,0.168,1.367c-0.099,0.252-0.28,0.49-0.526,0.656c-0.243,0.17-0.553,0.26-0.867,0.251
							c-0.314-0.015-0.616-0.127-0.846-0.315c-0.233-0.184-0.396-0.435-0.476-0.693c-0.167-0.526,0.003-1.048,0.27-1.351
							c0.267-0.313,0.595-0.436,0.813-0.473c0.11-0.02,0.198-0.023,0.257-0.019C437.881,170.385,437.912,170.389,437.912,170.393z"
							/>
					</g>
				</g>
			</g>
			<g>
				<g>
					<g>
						<path fill="#263238" d="M442.624,174.114c0,0,0.001,0.033-0.003,0.097c-0.004,0.068-0.01,0.163-0.017,0.286
							c-0.034,0.249-0.082,0.624-0.245,1.084c-0.162,0.458-0.437,1.004-0.895,1.542c-0.461,0.532-1.112,1.054-1.961,1.38
							l0.023-0.033c-0.093,2.589-0.216,6.034-0.358,10.029l-0.001,0.029l-0.025,0.016c-0.629,0.374-1.309,0.779-2.004,1.192
							l-0.041,0.024l-0.03-0.036c-0.313-0.355-0.657-0.745-1.005-1.139l-0.015-0.018v-0.023c0.01-0.262,0.021-0.552,0.031-0.844
							l0.001-0.033l0.029-0.016c0.263-0.147,0.553-0.31,0.846-0.473l-0.007,0.098c-0.252-0.189-0.528-0.396-0.806-0.605
							l-0.025-0.019l0.002-0.031c0.017-0.456,0.035-0.951,0.054-1.45l0.001-0.034l0.029-0.017c0.438-0.245,0.911-0.509,1.388-0.775
							l-0.007,0.101c-0.419-0.315-0.868-0.654-1.321-0.995l-0.025-0.019l0.001-0.032c0.006-0.141,0.011-0.294,0.017-0.447
							c0.016-0.416,0.031-0.829,0.047-1.24l0.001-0.034l0.03-0.017c0.467-0.261,0.929-0.519,1.388-0.775l-0.007,0.101
							c-0.445-0.335-0.886-0.667-1.321-0.995l-0.025-0.019l0.002-0.031c0.017-0.454,0.034-0.903,0.051-1.348l0.043,0.059
							c-0.755-0.217-1.447-0.603-2.003-1.121c-0.277-0.257-0.528-0.542-0.733-0.852c-0.215-0.305-0.38-0.637-0.515-0.975
							c-0.537-1.365-0.389-2.88,0.229-4.044c0.614-1.177,1.669-1.999,2.767-2.364c1.104-0.381,2.234-0.302,3.154,0.007
							c0.922,0.327,1.646,0.877,2.132,1.468c0.495,0.588,0.777,1.197,0.93,1.707c0.021,0.063,0.039,0.126,0.059,0.186
							c0.013,0.062,0.025,0.121,0.037,0.179c0.022,0.116,0.052,0.223,0.063,0.325c0.019,0.204,0.047,0.375,0.047,0.515
							c-0.001,0.136-0.001,0.241-0.001,0.317C442.626,174.078,442.624,174.114,442.624,174.114s-0.005-0.036-0.007-0.107
							c-0.003-0.075-0.006-0.18-0.01-0.315c-0.003-0.139-0.034-0.309-0.057-0.511c-0.014-0.101-0.044-0.207-0.067-0.322
							c-0.013-0.057-0.026-0.116-0.04-0.177c-0.02-0.06-0.039-0.121-0.06-0.184c-0.158-0.504-0.442-1.104-0.937-1.681
							c-0.485-0.58-1.201-1.118-2.111-1.434c-0.906-0.299-2.019-0.373-3.1,0.006c-1.076,0.363-2.106,1.172-2.704,2.326
							c-0.602,1.141-0.743,2.623-0.216,3.955c0.133,0.33,0.294,0.655,0.504,0.952c0.201,0.303,0.446,0.58,0.719,0.831
							c0.543,0.505,1.22,0.88,1.956,1.092l0.045,0.013l-0.002,0.046c-0.017,0.444-0.033,0.894-0.05,1.348l-0.023-0.05
							c0.436,0.328,0.876,0.66,1.321,0.994l0.074,0.056l-0.081,0.045c-0.458,0.256-0.921,0.514-1.388,0.775l0.031-0.05
							c-0.016,0.41-0.031,0.824-0.047,1.239c-0.006,0.153-0.012,0.306-0.017,0.447l-0.024-0.051c0.453,0.341,0.902,0.68,1.321,0.995
							l0.074,0.056l-0.081,0.045c-0.477,0.266-0.949,0.53-1.388,0.775l0.03-0.05c-0.019,0.499-0.037,0.994-0.055,1.45l-0.023-0.05
							c0.277,0.209,0.554,0.417,0.805,0.606l0.072,0.055l-0.079,0.044c-0.292,0.163-0.582,0.325-0.846,0.472l0.03-0.049
							c-0.012,0.292-0.022,0.582-0.032,0.844l-0.015-0.041c0.348,0.396,0.69,0.785,1.003,1.141l-0.072-0.011
							c0.696-0.413,1.377-0.816,2.007-1.189l-0.027,0.044c0.157-3.994,0.293-7.438,0.395-10.027l0.001-0.024l0.022-0.008
							c0.838-0.317,1.484-0.827,1.943-1.349c0.458-0.528,0.734-1.066,0.901-1.519c0.167-0.455,0.222-0.826,0.262-1.073
							c0.012-0.122,0.021-0.216,0.027-0.284C442.618,174.147,442.624,174.114,442.624,174.114z"/>
					</g>
				</g>
			</g>
		</g>
	</g>
	<g>
		<g>
			<path fill="#1AB394" d="M442.12,173.839c0.101-2.675-1.986-4.925-4.662-5.026c-2.675-0.101-4.925,1.987-5.025,4.662
				c-0.086,2.289,1.43,4.264,3.543,4.852v0.002l-0.05,1.346l1.321,0.995l-1.388,0.775l-0.063,1.687l1.321,0.995l-1.388,0.775
				l-0.055,1.45l0.806,0.606l-0.846,0.473l-0.032,0.844l1.004,1.14l2.005-1.191l0.376-10.028
				C440.756,177.525,442.044,175.848,442.12,173.839z M437.409,170.117c0.768,0.029,1.366,0.674,1.338,1.442
				c-0.029,0.767-0.675,1.366-1.442,1.337s-1.366-0.674-1.337-1.442C435.996,170.687,436.641,170.088,437.409,170.117z"/>
		</g>
	</g>
	<g>
		<g>
			<g>
				<path fill="none" d="M442.12,173.839c0.101-2.675-1.986-4.925-4.662-5.026c-2.675-0.101-4.925,1.987-5.025,4.662
					c-0.086,2.289,1.43,4.264,3.543,4.852v0.002l-0.05,1.346l1.321,0.995l-1.388,0.775l-0.063,1.687l1.321,0.995l-1.388,0.775
					l-0.055,1.45l0.806,0.606l-0.846,0.473l-0.032,0.844l1.004,1.14l2.005-1.191l0.376-10.028
					C440.756,177.525,442.044,175.848,442.12,173.839z M437.409,170.117c0.768,0.029,1.366,0.674,1.338,1.442
					c-0.029,0.767-0.675,1.366-1.442,1.337s-1.366-0.674-1.337-1.442C435.996,170.687,436.641,170.088,437.409,170.117z"/>
			</g>
		</g>
		<g>
			<g>
				<g>
					<path fill="#263238" d="M437.409,170.117c0,0.013-0.124,0.004-0.336,0.054c-0.208,0.049-0.514,0.179-0.756,0.481
						c-0.243,0.291-0.391,0.779-0.23,1.262c0.146,0.479,0.634,0.905,1.22,0.922c0.587,0.027,1.105-0.362,1.286-0.828
						c0.196-0.47,0.085-0.967-0.135-1.276c-0.219-0.319-0.514-0.471-0.718-0.536C437.533,170.13,437.408,170.13,437.409,170.117
						c0-0.004,0.031-0.005,0.09-0.004c0.059,0,0.146,0.01,0.255,0.038c0.214,0.053,0.532,0.199,0.774,0.532
						c0.243,0.321,0.374,0.855,0.168,1.367c-0.1,0.252-0.28,0.491-0.526,0.656c-0.243,0.17-0.553,0.26-0.867,0.251
						c-0.314-0.014-0.616-0.127-0.846-0.315c-0.233-0.183-0.396-0.434-0.476-0.693c-0.168-0.526,0.003-1.049,0.27-1.351
						c0.267-0.313,0.595-0.436,0.813-0.472c0.11-0.02,0.198-0.023,0.257-0.019C437.378,170.109,437.409,170.113,437.409,170.117z"/>
				</g>
			</g>
		</g>
		<g>
			<g>
				<g>
					<path fill="#263238" d="M442.12,173.839c0,0,0.001,0.033-0.002,0.097c-0.004,0.068-0.01,0.163-0.018,0.285
						c-0.033,0.25-0.082,0.624-0.244,1.084c-0.163,0.458-0.438,1.005-0.896,1.543c-0.46,0.532-1.111,1.053-1.961,1.38l0.024-0.033
						c-0.093,2.589-0.216,6.034-0.358,10.029l-0.001,0.03l-0.026,0.015c-0.628,0.375-1.308,0.779-2.003,1.193l-0.041,0.024
						l-0.031-0.035c-0.313-0.355-0.656-0.745-1.004-1.14l-0.016-0.017l0.001-0.023c0.01-0.262,0.021-0.552,0.031-0.844l0.001-0.033
						l0.029-0.016c0.263-0.147,0.553-0.309,0.845-0.473l-0.007,0.099c-0.251-0.189-0.527-0.397-0.805-0.606l-0.025-0.019
						l0.001-0.031c0.018-0.456,0.036-0.95,0.054-1.45l0.002-0.033l0.029-0.017c0.438-0.245,0.911-0.509,1.388-0.775l-0.007,0.101
						c-0.419-0.315-0.869-0.653-1.321-0.994l-0.025-0.019l0.001-0.032c0.005-0.141,0.011-0.294,0.017-0.447
						c0.016-0.416,0.031-0.829,0.047-1.239l0.001-0.034l0.029-0.017c0.467-0.26,0.93-0.519,1.389-0.774l-0.007,0.101
						c-0.445-0.335-0.886-0.667-1.321-0.995l-0.025-0.019l0.002-0.031c0.017-0.454,0.034-0.903,0.051-1.348l0.043,0.059
						c-0.755-0.217-1.447-0.603-2.003-1.121c-0.278-0.257-0.528-0.541-0.733-0.852c-0.215-0.305-0.38-0.637-0.515-0.975
						c-0.537-1.365-0.389-2.879,0.229-4.043c0.614-1.177,1.669-1.999,2.767-2.364c1.104-0.382,2.233-0.302,3.153,0.007
						c0.923,0.326,1.646,0.877,2.132,1.468c0.496,0.587,0.778,1.197,0.931,1.707c0.021,0.063,0.039,0.125,0.058,0.186
						c0.014,0.062,0.026,0.122,0.038,0.179c0.022,0.116,0.052,0.223,0.063,0.325c0.019,0.204,0.047,0.375,0.047,0.515
						c-0.001,0.136-0.001,0.241-0.002,0.316C442.124,173.803,442.12,173.839,442.12,173.839s-0.004-0.037-0.007-0.107
						c-0.002-0.075-0.005-0.18-0.009-0.315c-0.003-0.139-0.035-0.309-0.057-0.511c-0.014-0.101-0.044-0.207-0.067-0.321
						c-0.013-0.057-0.026-0.116-0.04-0.177c-0.02-0.06-0.039-0.121-0.06-0.184c-0.158-0.504-0.442-1.104-0.937-1.681
						c-0.485-0.58-1.202-1.118-2.111-1.435c-0.907-0.299-2.019-0.373-3.1,0.007c-1.076,0.363-2.106,1.172-2.704,2.326
						c-0.602,1.141-0.743,2.623-0.216,3.955c0.133,0.33,0.294,0.654,0.504,0.952c0.201,0.303,0.446,0.58,0.718,0.831
						c0.543,0.505,1.22,0.88,1.957,1.092l0.045,0.013l-0.002,0.046c-0.017,0.445-0.033,0.894-0.05,1.348l-0.024-0.05
						c0.437,0.328,0.877,0.66,1.322,0.995l0.073,0.056l-0.08,0.045c-0.459,0.256-0.921,0.515-1.388,0.775l0.03-0.051
						c-0.015,0.411-0.03,0.824-0.046,1.24c-0.006,0.153-0.012,0.306-0.017,0.447l-0.024-0.05c0.453,0.341,0.902,0.679,1.321,0.995
						l0.074,0.056l-0.081,0.045c-0.477,0.266-0.95,0.53-1.388,0.774l0.03-0.05c-0.019,0.499-0.037,0.994-0.055,1.449l-0.023-0.049
						c0.277,0.209,0.554,0.417,0.805,0.606l0.072,0.055l-0.079,0.044c-0.292,0.163-0.582,0.325-0.846,0.472l0.029-0.049
						c-0.011,0.292-0.021,0.582-0.031,0.844l-0.015-0.04c0.347,0.395,0.689,0.785,1.003,1.141l-0.072-0.012
						c0.696-0.413,1.377-0.816,2.006-1.189l-0.026,0.045c0.157-3.995,0.293-7.438,0.395-10.027l0.001-0.024l0.022-0.009
						c0.838-0.316,1.484-0.827,1.943-1.349c0.457-0.528,0.734-1.066,0.901-1.519c0.167-0.455,0.222-0.826,0.262-1.073
						c0.012-0.122,0.021-0.216,0.027-0.284C442.114,173.871,442.12,173.839,442.12,173.839z"/>
				</g>
			</g>
		</g>
	</g>
	<g>
		<g>
			<g>
				<path fill="#263238" d="M441.538,173.884c-0.021,0.001,0.022-0.38-0.117-1.041c-0.064-0.331-0.205-0.724-0.434-1.143
					c-0.229-0.417-0.567-0.856-1.033-1.235c-0.465-0.376-1.057-0.703-1.747-0.851c-0.687-0.144-1.466-0.151-2.219,0.104
					c-0.378,0.116-0.745,0.298-1.085,0.534c-0.176,0.111-0.33,0.252-0.492,0.388c-0.147,0.151-0.302,0.299-0.431,0.472
					c-0.543,0.669-0.868,1.543-0.91,2.454c-0.026,0.913,0.232,1.809,0.724,2.517c0.115,0.182,0.258,0.341,0.394,0.503
					c0.151,0.147,0.295,0.3,0.462,0.424c0.321,0.26,0.674,0.47,1.043,0.614c0.73,0.31,1.509,0.361,2.204,0.27
					c0.7-0.096,1.314-0.377,1.806-0.717c0.493-0.343,0.862-0.756,1.123-1.155c0.259-0.401,0.429-0.782,0.518-1.107
					C441.532,174.265,441.516,173.881,441.538,173.884c0.002,0,0.002,0.023,0,0.069c-0.003,0.053-0.007,0.12-0.012,0.203
					c-0.004,0.09-0.013,0.2-0.04,0.329c-0.022,0.129-0.045,0.279-0.098,0.442c-0.083,0.331-0.249,0.72-0.506,1.13
					c-0.26,0.409-0.631,0.833-1.131,1.188c-0.498,0.351-1.124,0.644-1.841,0.747c-0.711,0.099-1.509,0.05-2.261-0.266
					c-0.379-0.146-0.742-0.36-1.073-0.626c-0.172-0.127-0.32-0.283-0.476-0.435c-0.14-0.166-0.287-0.329-0.405-0.517
					c-0.507-0.727-0.774-1.649-0.747-2.587c0.043-0.938,0.379-1.837,0.938-2.523c0.133-0.178,0.292-0.33,0.443-0.484
					c0.167-0.139,0.326-0.284,0.507-0.397c0.35-0.241,0.728-0.427,1.116-0.544c0.774-0.258,1.573-0.247,2.275-0.096
					c0.706,0.156,1.309,0.495,1.779,0.882c0.472,0.391,0.81,0.842,1.038,1.27c0.227,0.429,0.362,0.83,0.42,1.166
					c0.041,0.166,0.052,0.317,0.064,0.448c0.018,0.13,0.019,0.241,0.016,0.331c-0.001,0.084-0.003,0.151-0.003,0.204
					C441.542,173.861,441.54,173.884,441.538,173.884z"/>
			</g>
		</g>
	</g>
	<g>
		<g>
			<g>
				<path fill="#263238" d="M438.973,171.584c-0.014,0-0.002-0.146-0.06-0.395c-0.057-0.245-0.208-0.605-0.563-0.891
					c-0.176-0.14-0.398-0.261-0.658-0.315c-0.257-0.052-0.549-0.054-0.83,0.042c-0.28,0.09-0.552,0.269-0.749,0.522
					c-0.202,0.25-0.323,0.576-0.339,0.916c-0.01,0.341,0.086,0.675,0.27,0.939c0.178,0.268,0.435,0.467,0.708,0.577
					c0.272,0.117,0.563,0.138,0.824,0.104c0.263-0.035,0.494-0.139,0.68-0.265c0.375-0.259,0.553-0.607,0.628-0.847
					C438.959,171.729,438.959,171.583,438.973,171.584c0.004,0,0.005,0.036,0.003,0.105c-0.001,0.069-0.014,0.171-0.047,0.298
					c-0.063,0.25-0.235,0.621-0.624,0.903c-0.192,0.138-0.435,0.253-0.714,0.294c-0.276,0.04-0.587,0.022-0.881-0.1
					c-0.294-0.116-0.571-0.327-0.764-0.614c-0.198-0.284-0.304-0.645-0.293-1.011c0.017-0.366,0.148-0.718,0.367-0.985
					c0.214-0.272,0.507-0.462,0.808-0.555c0.303-0.1,0.614-0.094,0.887-0.034c0.274,0.062,0.508,0.195,0.689,0.347
					c0.367,0.311,0.511,0.693,0.555,0.948c0.023,0.129,0.028,0.231,0.024,0.3S438.977,171.584,438.973,171.584z"/>
			</g>
		</g>
	</g>
	<g>
		<g>
			<g>
				
					<ellipse transform="matrix(-0.0375 0.9993 -0.9993 -0.0375 637.8478 -247.6586)" fill="#263238" cx="438.193" cy="183.349" rx="5.103" ry="0.061"/>
			</g>
		</g>
	</g>
	<g>
		<path fill="#E0E0E0" d="M437.828,170.597c-0.216,0.106-0.433,0.106-0.649,0v-6.146l0.648,0.045L437.828,170.597z"/>
		<path fill="#263238" d="M437.503,170.702c-0.112,0-0.225-0.027-0.335-0.082l-0.016-0.007l-0.001-6.189l0.701,0.049l0.001,6.141
			l-0.015,0.007C437.728,170.675,437.615,170.702,437.503,170.702z M437.206,170.581c0.199,0.094,0.396,0.094,0.597,0l-0.001-6.061
			l-0.597-0.042L437.206,170.581z"/>
	</g>
	<g>
		<g>
			<path fill="#FFBE9D" d="M435.039,161.428c0.502,0.514,1.164,0.837,1.735,1.273c0.57,0.437,1.08,1.067,1.053,1.785
				c-0.028,0.74-0.625,1.346-1.281,1.689c-0.924,0.483-2.039,0.59-3.038,0.291c-1-0.3-1.872-1.002-2.378-1.915"/>
		</g>
		<g>
			<g>
				<path fill="#EB996E" d="M431.129,164.552c0.075-0.052,0.419,0.613,1.358,1.215c0.466,0.295,1.084,0.549,1.803,0.603
					c0.714,0.059,1.527-0.085,2.24-0.489c0.708-0.396,1.182-1.1,1.017-1.739c-0.152-0.646-0.674-1.122-1.111-1.453
					c-0.944-0.644-1.476-1.2-1.397-1.261c0.047-0.028,0.591,0.37,1.613,0.952c0.484,0.317,1.126,0.786,1.374,1.649
					c0.116,0.428,0.037,0.939-0.209,1.343c-0.243,0.409-0.608,0.729-1.02,0.97c-0.828,0.469-1.75,0.61-2.554,0.517
					c-0.811-0.09-1.491-0.418-1.97-0.782C431.302,165.328,431.077,164.563,431.129,164.552z"/>
			</g>
		</g>
	</g>
	<g>
		<g>
			<path fill="#FFBE9D" d="M441.158,158.88c-1.104,1.392-2.219,2.798-2.991,4.397c-0.24,0.497-0.449,1.026-0.449,1.577
				c0,0.552,0.249,1.132,0.734,1.394c0.414,0.223,0.932,0.18,1.363-0.006c0.433-0.186,0.795-0.5,1.144-0.816
				c1.372-1.251,2.629-2.631,3.722-4.133c0.266-0.365,0.524-0.743,0.663-1.173c0.14-0.429,0.144-0.921-0.085-1.311"/>
		</g>
		<g>
			<g>
				<path fill="#EB996E" d="M445.258,158.809c0.017-0.022,0.255,0.206,0.285,0.746c0.054,0.542-0.288,1.286-0.821,1.998
					c-0.515,0.737-1.176,1.585-1.981,2.461c-0.402,0.439-0.841,0.885-1.312,1.331c-0.469,0.426-0.954,0.954-1.696,1.213
					c-0.365,0.119-0.771,0.152-1.156,0.029c-0.39-0.121-0.704-0.419-0.875-0.748c-0.365-0.67-0.254-1.434-0.039-2.002
					c0.46-1.146,1.066-2.029,1.594-2.762c1.08-1.441,1.853-2.232,1.901-2.194c0.067,0.052-0.606,0.936-1.591,2.409
					c-0.477,0.737-1.045,1.652-1.44,2.71c-0.182,0.521-0.237,1.109,0.034,1.589c0.245,0.493,0.832,0.664,1.405,0.464
					c0.563-0.189,1.035-0.66,1.507-1.088c0.467-0.433,0.904-0.863,1.31-1.286c0.812-0.843,1.491-1.651,2.037-2.349
					c0.567-0.685,0.899-1.295,0.917-1.777C445.373,159.077,445.217,158.828,445.258,158.809z"/>
			</g>
		</g>
	</g>
</g>
<g id="Floor">
</g>
<g id="Plant">
</g>
</svg>
