<?xml version="1.0" encoding="utf-8"?>
<!-- Generator: Adobe Illustrator 16.0.0, SVG Export Plug-In . SVG Version: 6.00 Build 0)  -->
<!DOCTYPE svg PUBLIC "-//W3C//DTD SVG 1.1//EN" "http://www.w3.org/Graphics/SVG/1.1/DTD/svg11.dtd">
<svg version="1.1" id="Layer_1" xmlns="http://www.w3.org/2000/svg" xmlns:xlink="http://www.w3.org/1999/xlink" x="0px" y="0px"
	 width="612px" height="792px" viewBox="0 0 612 792" enable-background="new 0 0 612 792" xml:space="preserve">
<g id="freepik--Device--inject-14">
	<path fill="#455A64" d="M267.646,334.378l-78.236-0.348c-9.407-0.05-16.995-7.445-16.955-16.527l0.83-189.322
		c0.039-9.082,7.697-16.414,17.104-16.376c0.005,0,0.011,0,0.016,0l78.227,0.347c9.408,0.047,16.999,7.438,16.964,16.52
		l-0.829,189.316C284.726,327.078,277.061,334.416,267.646,334.378L267.646,334.378z"/>
	<path fill="#FFFFFF" d="M268.513,118.662h-15.162c-2.081,0.038-3.735,1.695-3.697,3.703c0,0.002,0,0.002,0,0.002v2.654
		c0.04,2.004-1.611,3.658-3.687,3.696c-0.003,0.001-0.007,0.001-0.011,0.001l-29.557-0.129c-2.081-0.055-3.726-1.725-3.673-3.735
		v-2.653c0.052-2.008-1.586-3.678-3.665-3.735h-5.334l-13.275-0.06c-6.573-0.038-11.941,5.063-12.007,11.408l-0.784,184.794
		c-0.029,6.359,5.286,11.538,11.874,11.567l0,0l78.069,0.348c6.593,0.029,11.962-5.105,11.992-11.469l0,0l0.783-184.794
		C280.418,123.896,275.106,118.705,268.513,118.662z"/>
	<path fill="#1AB394" d="M258.011,301.869l-58.052-0.241c-0.603,0-1.087-0.636-1.081-1.407l0.063-14.66
		c0-0.756,0.493-1.406,1.098-1.406l58.049,0.258c0.695,0.115,1.173,0.739,1.082,1.414l-0.055,14.645
		C259.115,301.248,258.613,301.876,258.011,301.869z"/>
	<text transform="matrix(0.9945 0 0 1 215.7148 294.7852)" fill="#E8E8E3" font-family="'ArialMT'" font-size="6.2744">SING UP</text>
	
		<rect x="191.386" y="172.94" transform="matrix(-1 -0.0044 0.0044 -1 402.1522 350.3265)" fill="#1AB394" width="20.144" height="3.569"/>
	
		<rect x="191.386" y="172.94" transform="matrix(-1 -0.0044 0.0044 -1 402.1522 350.3265)" opacity="0.1" enable-background="new    " width="20.144" height="3.569"/>
	<path fill="#E0E0E0" d="M270.589,194.895c0.159-0.016,0.313-0.052,0.462-0.105c0.442-0.168,0.746-0.563,0.784-1.021
		c0-1.203,0-2.957,0-5.21c0-1.127,0-2.39,0-3.78c0-0.34,0-0.695,0-1.051c0.05-0.345-0.028-0.696-0.22-0.99
		c-0.219-0.286-0.563-0.457-0.933-0.461h-1.22h-11.318l-65.507-0.234c-0.34-0.006-0.662,0.149-0.86,0.415
		c-0.189,0.296-0.262,0.647-0.205,0.991c0,0.756,0,1.511,0,2.268c0,1.512,0,3.024,0,4.537c0,0.756,0,1.512,0,2.268
		c-0.032,0.352-0.032,0.707,0,1.059c0.083,0.306,0.309,0.557,0.611,0.681c0.154,0.06,0.319,0.087,0.486,0.083h3.986l17.394,0.091
		l29.449,0.173l19.854,0.152l5.396,0.061h1.401c0.322,0,0.479,0,0.479,0h-0.479h-1.401h-5.396h-19.854l-29.449-0.092l-17.394-0.067
		h-3.986c-0.22,0.009-0.438-0.028-0.643-0.105c-0.418-0.173-0.73-0.521-0.845-0.945c-0.045-0.198-0.061-0.402-0.048-0.604v-0.56
		c0-0.757,0-1.513,0-2.269c0-1.512,0-3.024,0-4.537c0-0.755,0-1.512,0-2.268c-0.014-0.201-0.014-0.403,0-0.605
		c0.03-0.222,0.12-0.434,0.26-0.611c0.273-0.371,0.718-0.588,1.19-0.582l65.506,0.348l11.318,0.075h1.223
		c0.437,0.001,0.844,0.206,1.097,0.552c0.219,0.33,0.309,0.725,0.249,1.111c0,0.355,0,0.711,0,1.051c0,1.377,0,2.639,0,3.781
		c0,2.268-0.055,4.006-0.07,5.217c-0.039,0.475-0.36,0.884-0.823,1.051C270.933,194.847,270.764,194.894,270.589,194.895z"/>
	<rect x="197.445" y="185.837" fill="#1AB394" width="36.842" height="3.334"/>
	<rect x="197.445" y="185.837" opacity="0.2" fill="#FFFFFF" enable-background="new    " width="36.842" height="3.334"/>
	
		<rect x="191.249" y="205.495" transform="matrix(-1 -0.0044 0.0044 -1 401.7353 415.435)" fill="#1AB394" width="20.143" height="3.569"/>
	
		<rect x="191.249" y="205.495" transform="matrix(-1 -0.0044 0.0044 -1 401.7353 415.435)" opacity="0.1" enable-background="new    " width="20.143" height="3.569"/>
	<path fill="#E0E0E0" d="M270.08,227.451c0.157-0.019,0.315-0.047,0.469-0.084c0.443-0.135,0.803-0.45,0.986-0.861
		c0.124-0.306,0.173-0.635,0.142-0.961c0-0.362,0-0.755,0-1.193c0-0.877,0-1.875,0-3.024v-4.802
		c0.038-0.347-0.043-0.697-0.228-0.997c-0.192-0.308-0.496-0.537-0.853-0.644c-0.39-0.066-0.788-0.087-1.182-0.061h-11.271
		l-65.28-0.233c-0.726,0.001-1.339,0.521-1.432,1.218c0,0.717,0,1.512,0,2.268c0,1.512,0,3.023,0,4.536c0,0.756,0,1.512,0,2.269
		c-0.03,0.354-0.014,0.708,0.046,1.059c0.097,0.306,0.3,0.572,0.573,0.756c0.289,0.177,0.628,0.262,0.97,0.241h1.09h2.262
		l17.333,0.083l29.348,0.174l19.783,0.152l5.38,0.061h1.403h0.47h-0.47h-1.403h-5.38h-19.783l-29.363-0.031l-17.332-0.061h-3.408
		c-0.423,0.025-0.843-0.084-1.198-0.309c-0.356-0.24-0.617-0.589-0.737-0.991c-0.069-0.385-0.091-0.775-0.063-1.165
		c0-0.756,0-1.512,0-2.268c0-1.512,0-3.024,0-4.535c0-0.757,0-1.514,0-2.27c0.118-0.895,0.907-1.563,1.841-1.564l65.28,0.348
		l11.271,0.082c0.419-0.023,0.841,0.004,1.251,0.084c0.407,0.129,0.751,0.397,0.963,0.756c0.203,0.334,0.292,0.721,0.251,1.104
		c0,0.356,0,0.704,0,1.052c0,1.368,0,2.623,0,3.78c0,1.156,0,2.131,0,3.023c0,0.432,0,0.832,0,1.203
		c0.029,0.338-0.029,0.677-0.164,0.989c-0.205,0.423-0.592,0.737-1.058,0.862C270.417,227.509,270.245,227.494,270.08,227.451z"/>
	
		<rect x="191.096" y="239.463" transform="matrix(-1 -0.0044 0.0044 -1 401.2829 483.3715)" fill="#1AB394" width="20.145" height="3.569"/>
	
		<rect x="191.096" y="239.463" transform="matrix(-1 -0.0044 0.0044 -1 401.2829 483.3715)" opacity="0.1" enable-background="new    " width="20.145" height="3.569"/>
	<path fill="#E0E0E0" d="M269.922,261.405c0.16-0.019,0.316-0.046,0.471-0.083c0.441-0.135,0.8-0.446,0.987-0.854
		c0.123-0.306,0.171-0.634,0.141-0.96c0-0.371,0-0.756,0-1.203c0-0.869,0-1.874,0-3.023v-4.801c0.037-0.348-0.043-0.697-0.228-0.998
		c-0.197-0.303-0.5-0.528-0.854-0.636c-0.389-0.069-0.787-0.092-1.182-0.067h-11.27l-65.281-0.234
		c-0.727,0.002-1.34,0.522-1.434,1.217c0,0.756,0,1.512,0,2.269c0,1.512,0,3.024,0,4.536c0,0.756,0,1.512,0,2.268
		c-0.029,0.352-0.014,0.704,0.047,1.052c0.094,0.308,0.296,0.575,0.572,0.756c0.288,0.181,0.628,0.267,0.97,0.242h3.408
		l17.331,0.091l29.348,0.174l19.783,0.152l5.382,0.059h1.402c0.312,0,0.47,0,0.47,0s-0.158,0-0.47,0h-1.402h-5.382H242.95
		l-29.348-0.083l-17.331-0.067h-3.408c-0.424,0.027-0.846-0.082-1.198-0.311c-0.357-0.238-0.616-0.588-0.735-0.99
		c-0.07-0.385-0.092-0.775-0.063-1.164c0-0.756,0-1.513,0-2.269c0-1.512,0-3.024,0-4.536c0-0.757,0-1.512,0-2.306
		c0.115-0.894,0.9-1.564,1.833-1.565l65.28,0.348l11.27,0.083c0.421-0.024,0.843,0.003,1.255,0.083
		c0.407,0.129,0.749,0.398,0.963,0.757c0.203,0.333,0.29,0.72,0.251,1.104c0,0.355,0,0.71,0,1.051c0,1.368,0,2.624,0,3.78
		c0,1.157,0,2.133,0,3.024c0,0.431,0,0.831,0,1.202c0.03,0.338-0.028,0.678-0.166,0.989c-0.205,0.423-0.591,0.737-1.055,0.862
		C270.311,261.413,270.116,261.431,269.922,261.405z"/>
	
		<rect x="196.651" y="219.255" transform="matrix(-1 -0.0044 0.0044 -1 429.1762 442.7823)" fill="#1AB394" width="36.842" height="3.334"/>
	
		<rect x="196.651" y="219.255" transform="matrix(-1 -0.0044 0.0044 -1 429.1762 442.7823)" opacity="0.2" fill="#FFFFFF" enable-background="new    " width="36.842" height="3.334"/>
	<path fill="#1AB394" d="M199.992,255.235c-0.066,0.858-0.839,1.503-1.728,1.44c-0.889-0.064-1.556-0.811-1.491-1.668
		c0.063-0.829,0.791-1.465,1.652-1.443C199.333,253.613,200.031,254.358,199.992,255.235z"/>
	<path fill="#1AB394" d="M204.98,255.258c0.062,0.858-0.609,1.603-1.497,1.661c-0.889,0.061-1.66-0.586-1.722-1.445
		c-0.005-0.071-0.005-0.144,0-0.216c-0.062-0.858,0.607-1.603,1.497-1.662c0.889-0.061,1.66,0.587,1.722,1.444
		C204.985,255.114,204.985,255.185,204.98,255.258z"/>
	<path fill="#1AB394" d="M209.978,255.281c-0.066,0.857-0.84,1.502-1.729,1.44c-0.888-0.064-1.555-0.811-1.491-1.668
		c0.063-0.83,0.791-1.466,1.652-1.443C209.317,253.662,210.012,254.405,209.978,255.281z"/>
	<path fill="#1AB394" d="M214.965,255.303c-0.065,0.857-0.837,1.503-1.727,1.439c-0.888-0.063-1.556-0.81-1.491-1.667
		c0.063-0.83,0.79-1.465,1.652-1.443C214.305,253.685,215.001,254.427,214.965,255.303z"/>
	<path fill="#1AB394" d="M219.954,255.318c-0.06,0.859-0.83,1.507-1.72,1.447c-0.889-0.059-1.56-0.801-1.498-1.659
		c0.059-0.833,0.788-1.473,1.652-1.451C219.292,253.708,219.986,254.446,219.954,255.318z"/>
	<path fill="#1AB394" d="M224.952,255.341c-0.06,0.858-0.831,1.506-1.72,1.447c-0.889-0.058-1.56-0.801-1.5-1.659
		c0.058-0.818,0.764-1.454,1.614-1.452C224.264,253.71,224.983,254.455,224.952,255.341z"/>
	<path fill="#1AB394" d="M229.941,255.365c0.061,0.857-0.609,1.602-1.497,1.661c-0.889,0.06-1.661-0.587-1.723-1.445
		c-0.005-0.071-0.005-0.146,0-0.216c-0.063-0.858,0.608-1.604,1.497-1.662c0.888-0.061,1.66,0.586,1.723,1.444
		C229.946,255.218,229.946,255.292,229.941,255.365z"/>
	<path fill="#1AB394" d="M234.929,255.386c-0.059,0.859-0.83,1.508-1.719,1.449c-0.889-0.06-1.56-0.803-1.499-1.661
		c0.058-0.817,0.764-1.454,1.614-1.45C234.242,253.756,234.96,254.5,234.929,255.386z"/>
	<path fill="#1AB394" d="M239.918,255.41c-0.06,0.857-0.83,1.506-1.719,1.447s-1.562-0.803-1.5-1.66
		c0.058-0.833,0.788-1.473,1.654-1.451C239.255,253.799,239.95,254.537,239.918,255.41z"/>
	<g opacity="0.2">
		<path fill="#FFFFFF" d="M199.992,255.235c-0.066,0.858-0.839,1.503-1.728,1.44c-0.889-0.064-1.556-0.811-1.491-1.668
			c0.063-0.829,0.791-1.465,1.652-1.443C199.333,253.613,200.031,254.358,199.992,255.235z"/>
		<path fill="#FFFFFF" d="M204.98,255.258c0.062,0.858-0.609,1.603-1.497,1.661c-0.889,0.061-1.66-0.586-1.722-1.445
			c-0.005-0.071-0.005-0.144,0-0.216c-0.062-0.858,0.607-1.603,1.497-1.662c0.889-0.061,1.66,0.587,1.722,1.444
			C204.985,255.114,204.985,255.185,204.98,255.258z"/>
		<path fill="#FFFFFF" d="M209.978,255.281c-0.066,0.857-0.84,1.502-1.729,1.44c-0.888-0.064-1.555-0.811-1.491-1.668
			c0.063-0.83,0.791-1.466,1.652-1.443C209.317,253.662,210.012,254.405,209.978,255.281z"/>
		<path fill="#FFFFFF" d="M214.965,255.303c-0.065,0.857-0.837,1.503-1.727,1.439c-0.888-0.063-1.556-0.81-1.491-1.667
			c0.063-0.83,0.79-1.465,1.652-1.443C214.305,253.685,215.001,254.427,214.965,255.303z"/>
		<path fill="#FFFFFF" d="M219.954,255.318c-0.06,0.859-0.83,1.507-1.72,1.447c-0.889-0.059-1.56-0.801-1.498-1.659
			c0.059-0.833,0.788-1.473,1.652-1.451C219.292,253.708,219.986,254.446,219.954,255.318z"/>
		<path fill="#FFFFFF" d="M224.952,255.341c-0.06,0.858-0.831,1.506-1.72,1.447c-0.889-0.058-1.56-0.801-1.5-1.659
			c0.058-0.818,0.764-1.454,1.614-1.452C224.264,253.71,224.983,254.455,224.952,255.341z"/>
		<path fill="#FFFFFF" d="M229.941,255.365c0.061,0.857-0.609,1.602-1.497,1.661c-0.889,0.06-1.661-0.587-1.723-1.445
			c-0.005-0.071-0.005-0.146,0-0.216c-0.063-0.858,0.608-1.604,1.497-1.662c0.888-0.061,1.66,0.586,1.723,1.444
			C229.946,255.218,229.946,255.292,229.941,255.365z"/>
		<path fill="#FFFFFF" d="M234.929,255.386c-0.059,0.859-0.83,1.508-1.719,1.449c-0.889-0.06-1.56-0.803-1.499-1.661
			c0.058-0.817,0.764-1.454,1.614-1.45C234.242,253.756,234.96,254.5,234.929,255.386z"/>
		<path fill="#FFFFFF" d="M239.918,255.41c-0.06,0.857-0.83,1.506-1.719,1.447s-1.562-0.803-1.5-1.66
			c0.058-0.833,0.788-1.473,1.654-1.451C239.255,253.799,239.95,254.537,239.918,255.41z"/>
	</g>
	<path fill="#1AB394" d="M232.83,146.265c1.113-0.473,1.825-1.541,1.811-2.713c0.082-1.519-1.126-2.814-2.698-2.894
		c-1.573-0.079-2.915,1.087-2.996,2.604c-0.005,0.096-0.005,0.191,0,0.289c-0.025,1.185,0.692,2.268,1.816,2.744
		c-4.386,0.635-4.19,5.232-4.19,5.232l10.369,0.044C236.942,151.573,237.185,146.893,232.83,146.265z"/>
	<path opacity="0.1" enable-background="new    " d="M232.83,146.265c1.113-0.473,1.825-1.541,1.811-2.713
		c0.082-1.519-1.126-2.814-2.698-2.894c-1.573-0.079-2.915,1.087-2.996,2.604c-0.005,0.096-0.005,0.191,0,0.289
		c-0.025,1.185,0.692,2.268,1.816,2.744c-4.386,0.635-4.19,5.232-4.19,5.232l10.369,0.044
		C236.942,151.573,237.185,146.893,232.83,146.265z"/>
	
		<rect x="212.711" y="154.457" transform="matrix(-1 -0.0044 0.0044 -1 461.697 314.1851)" fill="#1AB394" width="36.96" height="4.265"/>
	
		<rect x="212.711" y="154.457" transform="matrix(-1 -0.0044 0.0044 -1 461.697 314.1851)" opacity="0.2" fill="#FFFFFF" enable-background="new    " width="36.96" height="4.265"/>
</g>
<path id="HIPS" fill="#C5DCDD" d="M399.985,366.036c0,0,40.114,66.427,21.82,98.199c-18.295,31.771-50.481,43.578-88.562,39.467
	c-96.479-10.371-215.262-84.651-212.267-108.598c4.045-32.333,181.672,4.723,181.672,4.723l15.809-33.468L399.985,366.036z"/>
<path id="LEG" fill="#C5DCDD" d="M122.141,391.291c-5.363,5.526-44.526,82.301,191.857,138.16l8.876-16.313
	C322.874,513.138,164.485,347.671,122.141,391.291z"/>
<path id="SHADOW" fill="#C5DCDD" d="M323.188,513.138c0,0-79.296-82.848-140.679-115.856"/>
<path id="FOOT" fill="#C48270" d="M313.988,529.451c10.913,1.953,57.313,17.991,67.581,15.852
	c10.268-2.139-6.019-32.612-12.438-33.894s-38.032,2.284-46.249,1.729S313.988,529.451,313.988,529.451z"/>
<path id="LEG-2" fill="#C5DCDD" d="M370.143,461.165c-41.167,86.791-158.417,185.784-158.417,185.784s-8.876-7.676-19.986-8.147
	c0,0,104.921-233.332,164.159-244.652C403.815,384.994,377.057,446.58,370.143,461.165z"/>
<path id="FOOT-2" fill="#C48270" d="M191.707,638.26c-10.459,16.678-26.628,51.743-36.78,63.899
	c-3.298,3.952,25.825,5.139,30.244,1.605c6.073-4.824,6.541-22.891,18.598-25.227c8.437-1.616,16.893-7.251,12.955-15.384
	c-5.541-11.45-4.732-16.865-4.732-16.865C202.447,635.648,191.707,638.26,191.707,638.26z"/>
<g id="LEFT_HAND">
	<path id="HAND" fill="#C48270" d="M321.622,241.026c19.252,31.45-6.073,104.291-17.752,115.185
		c-21.592,20.177-115.713,17.318-115.713,17.318l-3.821-8.647c0,0,51.855-28.282,93.261-30.529c0,0,11.048-56.766,14.711-73.061
		C296.928,240.774,308.326,219.317,321.622,241.026z"/>
	<path id="ARM" fill="#C48270" d="M194.954,365.625c-2.079-5.195-19.845-1.943-26.904,1.336
		c-6.008,2.803-13.272,10.277-14.454,11.866c-1.182,1.588-3.831,9.591-3.831,9.591s2.556,2.705,6.003-2.014
		c3.447-4.719,12.385-10.114,14.599-8.928c4.984,2.663-7.097,3.709-8.409,5.606c-1.313,1.896-0.696,3.05-0.696,3.05
		s11.357-0.519,13.169-0.771c1.813-0.252,9.063-3.513,12.614-6.48C190.595,375.917,196.248,368.867,194.954,365.625z"/>
</g>
<path id="TORSO" fill="#F4F1ED" d="M398.191,221.999c5.824,1.729,24.114,8.53,24.114,8.53s-1.547,44.152-6.728,54.603
	c-21.705,43.759-14.949,84.09-14.949,84.09s-51.389,8.554-82.82,0.309c0,0,4.111-33.295-2.61-37.266
	c-6.724-3.971-17.715-12.94-14.66-30.94c3.056-18,2.336-65.282,6.008-68.337c3.672-3.055,19.967-10.997,24.157-10.983
	C334.895,222.017,398.191,221.999,398.191,221.999z"/>
<path d="M237.737,313.09H122.65c-4.35,0.001-7.875,3.528-7.875,7.878c0,0.927,0.165,1.847,0.484,2.717l29.006,78.868H279.04
	l-30.006-81.563C247.297,316.248,242.787,313.093,237.737,313.09z"/>
<path d="M235.476,317.112H123.253c-4.239,0.01-7.667,3.454-7.658,7.693c0.002,0.9,0.162,1.792,0.473,2.636l28.264,76.881h131.419
	l-29.259-79.525C244.794,320.18,240.396,317.111,235.476,317.112z"/>
<path fill="#484848" d="M144.327,402.785h190.572c4.49,0,8.133,3.643,8.133,8.135v1.789l0,0H152.46
	c-4.492,0-8.133-3.643-8.133-8.133V402.785L144.327,402.785z"/>
<path fill="#5D5D5D" d="M237.737,313.09H122.65c-4.35,0.001-7.875,3.528-7.875,7.878c0,0.927,0.165,1.847,0.484,2.717l29.006,78.868
	H279.04l-30.006-81.563C247.297,316.248,242.787,313.093,237.737,313.09z"/>
<ellipse transform="matrix(-0.6691 0.7432 -0.7432 -0.6691 587.9073 461.3103)" fill="#1AB394" cx="191.257" cy="361.535" rx="7.377" ry="9.099"/>
<rect x="289.196" y="406.355" width="8.054" height="2.891"/>
<rect x="304.584" y="406.355" width="8.054" height="2.891"/>
<path fill="#1C0E0C" d="M340.809,135.815c0,0-27.759-13.025-44.959,14.272c-17.201,27.296,6.405,39.532-5.947,53.504
	c-13.361,15.123-30.282,23.98-16.575,53.949c13.978,30.553-21.667,19.29-13.959,53.304h60.438c0,0,25.998-9.101,18.221-31.525
	c-7.778-22.424-24.521-25.526-8.876-45.315c11.768-14.856,66.058-11.829,70.93-10.549c4.873,1.28,25.662,8.409,25.662,8.409
	s8.264-24.723-3.557-38.336c-14.948-17.225-39.887-4.527-44.437-24.737c-3.069-13.632-9.017-29.464-18.944-32.454
	C348.157,133.143,340.809,135.815,340.809,135.815z"/>
<path fill="#C48270" d="M361.977,183.308c0,0-0.935,20.583,6.588,31.146c5.104,7.176,0.519,6.568,18.336,8.615
	c0,0,1.868,26.432-39.393,26.432c-30.618,0-18.358-15.491-18.358-15.491s12.78-18.514,7.272-50.702H361.977z"/>
<path fill="#1C0E0C" d="M362.378,181.729c0,0,0.794,41.363-32.286,41.363c-0.67-0.001-1.331-0.153-1.934-0.444
	c1.742-1.215,12.613-10.147,7.245-41.457h26.975c0,0,0,0.182,0,0.523V181.729z"/>
<path id="HEAD" fill="#C48270" d="M363.284,181.042c0,0-4.756,35.36-27.181,35.533c-14.771,0.107-23.308-20.607-26.765-31.464
	c-3.952-12.399,0.234-37.187,21.309-36.874c18.3,0.275,27.861,25.227,27.861,25.227L363.284,181.042z"/>
<path d="M358.968,179.234c0,0-0.9-3.06-0.069-5.826c0.571-2.053,2.246-3.612,4.335-4.036"/>
<line fill="none" x1="363.232" y1="175.422" x2="358.897" y2="173.408"/>
<path fill="#C48270" d="M396.78,233.734c0,0-12.945,33.557,7.765,51.589c6.676,5.812,16.528,0.5,16.528,0.5"/>
<path fill="#C48270" d="M406.497,267.781c7.377,23.358,17.164,56.406,17.164,56.406c-38.817,2.107-97.367,25.652-104.482,28.572
	c-11.823,2.64-28.577,12.217-31.8,14.137c-3,1.714-7.75,6.461-9.18,8.372c-1.485,1.985-5.008,9.143-5.008,9.143
	c1.533,0.762,3.388,0.375,4.489-0.935c1.401-1.504,3.705-5.139,5.564-6.905c-1.687,4.237-3.27,8.615-3.27,8.615
	s4.205,1.023,9.549-0.71c2.569-0.827,5.405-5.751,8.409-8.998s9.563-1.705,16.122-2.803c6.561-1.098,11.124-10.745,11.124-10.745
	l-0.094-0.159c17.037,0.28,106.654,0.864,126.168-17.374c11.68-10.895-3.452-81.838-22.709-113.284
	c-8.465-13.828-21.069-11.969-26.998-3.167c-1.979,2.934-4.34,4.647-4.438,8.802"/>
<path d="M283.314,385.46c-0.213,0.039-0.417-0.103-0.456-0.316c-0.014-0.076-0.004-0.154,0.026-0.225
	c0.504-1.196,4.984-11.731,6.96-13.156c3.42-2.476,7.876-5.728,7.876-5.728l0.467,0.64c0,0-4.461,3.271-7.881,5.728
	c-1.518,1.098-5.349,9.628-6.694,12.824C283.56,385.351,283.447,385.438,283.314,385.46z"/>
<path d="M287.589,384.736c-0.077,0.014-0.157,0.004-0.229-0.028c-0.198-0.093-0.286-0.328-0.196-0.528
	c0.183-0.393,4.466-9.689,6.471-11.137c3.419-2.476,7.881-5.723,7.881-5.723l0.467,0.64c0,0-4.461,3.27-7.881,5.723
	c-1.527,1.102-5.003,8.189-6.218,10.829C287.829,384.631,287.718,384.716,287.589,384.736z"/>
<path fill="#1C0E0C" d="M357.085,189.329c0,0-0.079,45.512,24.573,48.796c24.651,3.284,44.171-13.081,44.171-13.081"/>
<polyline points="326.598,181.635 325.266,192.637 329.914,195.351 "/>
<ellipse transform="matrix(-0.9436 0.3312 -0.3312 -0.9436 711.4928 237.7773)" cx="335.489" cy="179.505" rx="1.887" ry="2.495"/>
<ellipse transform="matrix(-0.9436 0.3312 -0.3312 -0.9436 680.5121 251.5766)" cx="318.823" cy="183.765" rx="1.887" ry="2.495"/>
<path d="M329.564,171.955c0,0,3.27-3.877,10.276-0.5"/>
<path d="M312.344,177.384c0,0,1.832-4.728,8.598-2.714"/>
<path fill="#1C0E0C" d="M322.528,146.457c0,0,10.89-4.508,14.523,6.26c3.634,10.768,9.555,19.785,21.489,13.548
	c11.938-6.237,7.055-14.436,7.055-14.436"/>
<circle cx="360.107" cy="173.408" r="7.778"/>
<path d="M357.15,178.155c0,0-0.897-3.065-0.065-5.826c0.571-2.052,2.243-3.611,4.331-4.036"/>
<line fill="none" x1="361.416" y1="174.343" x2="357.085" y2="172.329"/>
<path fill="#1AB394" d="M356.684,165.144c-2.22-20.266-22.387-31.87-22.605-31.945l9.712,0.663
	c1.173,0.397,12.366,1.953,22.798,28.829L356.684,165.144z"/>
<ellipse transform="matrix(-0.9912 0.1322 -0.1322 -0.9912 745.1201 305.5242)" cx="362.418" cy="177.497" rx="9.343" ry="15.266"/>
<ellipse transform="matrix(-0.9912 0.1322 -0.1322 -0.9912 751.4993 304.2355)" fill="#1AB394" cx="365.65" cy="177.064" rx="9.343" ry="15.267"/>
<path d="M329.914,200.924c0,0,7.265,1.252,10.517-5.923"/>
</svg>
